  0
SECTION
  2
HEADER
  9
$ACADVER
  1
AC1015
  9
$ACADMAINTVER
 70
6
  9
$DWGCODEPAGE
  3
ANSI_1252
  9
$INSBASE
 10
0.0
 20
0.0
 30
0.0
  9
$EXTMIN
 10
1e+20
 20
1e+20
 30
1e+20
  9
$EXTMAX
 10
-1e+20
 20
-1e+20
 30
-1e+20
  9
$LIMMIN
 10
0.0
 20
0.0
  9
$LIMMAX
 10
420.0
 20
297.0
  9
$ORTHOMODE
 70
0
  9
$REGENMODE
 70
1
  9
$FILLMODE
 70
1
  9
$QTEXTMODE
 70
0
  9
$MIRRTEXT
 70
1
  9
$LTSCALE
 40
1.0
  9
$ATTMODE
 70
1
  9
$TEXTSIZE
 40
2.5
  9
$TRACEWID
 40
1.0
  9
$TEXTSTYLE
  7
Standard
  9
$CLAYER
  8
0
  9
$CELTYPE
  6
ByLayer
  9
$CECOLOR
 62
256
  9
$CELTSCALE
 40
1.0
  9
$DISPSILH
 70
0
  9
$DIMSCALE
 40
1.0
  9
$DIMASZ
 40
2.5
  9
$DIMEXO
 40
0.625
  9
$DIMDLI
 40
3.75
  9
$DIMRND
 40
0.0
  9
$DIMDLE
 40
0.0
  9
$DIMEXE
 40
1.25
  9
$DIMTP
 40
0.0
  9
$DIMTM
 40
0.0
  9
$DIMTXT
 40
2.5
  9
$DIMCEN
 40
2.5
  9
$DIMTSZ
 40
0.0
  9
$DIMTOL
 70
0
  9
$DIMLIM
 70
0
  9
$DIMTIH
 70
0
  9
$DIMTOH
 70
0
  9
$DIMSE1
 70
0
  9
$DIMSE2
 70
0
  9
$DIMTAD
 70
1
  9
$DIMZIN
 70
8
  9
$DIMBLK
  1

  9
$DIMASO
 70
1
  9
$DIMSHO
 70
1
  9
$DIMPOST
  1

  9
$DIMAPOST
  1

  9
$DIMALT
 70
0
  9
$DIMALTD
 70
3
  9
$DIMALTF
 40
0.03937007874
  9
$DIMLFAC
 40
1.0
  9
$DIMTOFL
 70
1
  9
$DIMTVP
 40
0.0
  9
$DIMTIX
 70
0
  9
$DIMSOXD
 70
0
  9
$DIMSAH
 70
0
  9
$DIMBLK1
  1

  9
$DIMBLK2
  1

  9
$DIMSTYLE
  2
ISO-25
  9
$DIMCLRD
 70
0
  9
$DIMCLRE
 70
0
  9
$DIMCLRT
 70
0
  9
$DIMTFAC
 40
1.0
  9
$DIMGAP
 40
0.625
  9
$DIMJUST
 70
0
  9
$DIMSD1
 70
0
  9
$DIMSD2
 70
0
  9
$DIMTOLJ
 70
0
  9
$DIMTZIN
 70
8
  9
$DIMALTZ
 70
0
  9
$DIMALTTZ
 70
0
  9
$DIMUPT
 70
0
  9
$DIMDEC
 70
2
  9
$DIMTDEC
 70
2
  9
$DIMALTU
 70
2
  9
$DIMALTTD
 70
3
  9
$DIMTXSTY
  7
Standard
  9
$DIMAUNIT
 70
0
  9
$DIMADEC
 70
0
  9
$DIMALTRND
 40
0.0
  9
$DIMAZIN
 70
0
  9
$DIMDSEP
 70
44
  9
$DIMATFIT
 70
3
  9
$DIMFRAC
 70
0
  9
$DIMLDRBLK
  1

  9
$DIMLUNIT
 70
2
  9
$DIMLWD
 70
-2
  9
$DIMLWE
 70
-2
  9
$DIMTMOVE
 70
0
  9
$LUNITS
 70
2
  9
$LUPREC
 70
4
  9
$SKETCHINC
 40
1.0
  9
$FILLETRAD
 40
10.0
  9
$AUNITS
 70
0
  9
$AUPREC
 70
2
  9
$MENU
  1
.
  9
$ELEVATION
 40
0.0
  9
$PELEVATION
 40
0.0
  9
$THICKNESS
 40
0.0
  9
$LIMCHECK
 70
0
  9
$CHAMFERA
 40
0.0
  9
$CHAMFERB
 40
0.0
  9
$CHAMFERC
 40
0.0
  9
$CHAMFERD
 40
0.0
  9
$SKPOLY
 70
0
  9
$TDCREATE
 40
2460687.727708333
  9
$TDUCREATE
 40
2458532.153996898
  9
$TDUPDATE
 40
2460687.727708333
  9
$TDUUPDATE
 40
2458532.1544311
  9
$TDINDWG
 40
0.0
  9
$TDUSRTIMER
 40
0.0
  9
$USRTIMER
 70
1
  9
$ANGBASE
 50
0.0
  9
$ANGDIR
 70
0
  9
$PDMODE
 70
0
  9
$PDSIZE
 40
0.0
  9
$PLINEWID
 40
0.0
  9
$SPLFRAME
 70
0
  9
$SPLINETYPE
 70
6
  9
$SPLINESEGS
 70
8
  9
$HANDSEED
  5
248
  9
$SURFTAB1
 70
6
  9
$SURFTAB2
 70
6
  9
$SURFTYPE
 70
6
  9
$SURFU
 70
6
  9
$SURFV
 70
6
  9
$UCSBASE
  2

  9
$UCSNAME
  2

  9
$UCSORG
 10
0.0
 20
0.0
 30
0.0
  9
$UCSXDIR
 10
1.0
 20
0.0
 30
0.0
  9
$UCSYDIR
 10
0.0
 20
1.0
 30
0.0
  9
$UCSORTHOREF
  2

  9
$UCSORTHOVIEW
 70
0
  9
$UCSORGTOP
 10
0.0
 20
0.0
 30
0.0
  9
$UCSORGBOTTOM
 10
0.0
 20
0.0
 30
0.0
  9
$UCSORGLEFT
 10
0.0
 20
0.0
 30
0.0
  9
$UCSORGRIGHT
 10
0.0
 20
0.0
 30
0.0
  9
$UCSORGFRONT
 10
0.0
 20
0.0
 30
0.0
  9
$UCSORGBACK
 10
0.0
 20
0.0
 30
0.0
  9
$PUCSBASE
  2

  9
$PUCSNAME
  2

  9
$PUCSORG
 10
0.0
 20
0.0
 30
0.0
  9
$PUCSXDIR
 10
1.0
 20
0.0
 30
0.0
  9
$PUCSYDIR
 10
0.0
 20
1.0
 30
0.0
  9
$PUCSORTHOREF
  2

  9
$PUCSORTHOVIEW
 70
0
  9
$PUCSORGTOP
 10
0.0
 20
0.0
 30
0.0
  9
$PUCSORGBOTTOM
 10
0.0
 20
0.0
 30
0.0
  9
$PUCSORGLEFT
 10
0.0
 20
0.0
 30
0.0
  9
$PUCSORGRIGHT
 10
0.0
 20
0.0
 30
0.0
  9
$PUCSORGFRONT
 10
0.0
 20
0.0
 30
0.0
  9
$PUCSORGBACK
 10
0.0
 20
0.0
 30
0.0
  9
$USERI1
 70
0
  9
$USERI2
 70
0
  9
$USERI3
 70
0
  9
$USERI4
 70
0
  9
$USERI5
 70
0
  9
$USERR1
 40
0.0
  9
$USERR2
 40
0.0
  9
$USERR3
 40
0.0
  9
$USERR4
 40
0.0
  9
$USERR5
 40
0.0
  9
$WORLDVIEW
 70
1
  9
$SHADEDGE
 70
3
  9
$SHADEDIF
 70
70
  9
$TILEMODE
 70
1
  9
$MAXACTVP
 70
64
  9
$PINSBASE
 10
0.0
 20
0.0
 30
0.0
  9
$PLIMCHECK
 70
0
  9
$PEXTMIN
 10
1e+20
 20
1e+20
 30
1e+20
  9
$PEXTMAX
 10
-1e+20
 20
-1e+20
 30
-1e+20
  9
$PLIMMIN
 10
0.0
 20
0.0
  9
$PLIMMAX
 10
420.0
 20
297.0
  9
$UNITMODE
 70
0
  9
$VISRETAIN
 70
1
  9
$PLINEGEN
 70
0
  9
$PSLTSCALE
 70
1
  9
$TREEDEPTH
 70
3020
  9
$CMLSTYLE
  2
Standard
  9
$CMLJUST
 70
0
  9
$CMLSCALE
 40
20.0
  9
$PROXYGRAPHICS
 70
1
  9
$MEASUREMENT
 70
1
  9
$CELWEIGHT
370
-1
  9
$ENDCAPS
280
0
  9
$JOINSTYLE
280
0
  9
$LWDISPLAY
290
0
  9
$INSUNITS
 70
6
  9
$HYPERLINKBASE
  1

  9
$STYLESHEET
  1

  9
$XEDIT
290
1
  9
$CEPSNTYPE
380
0
  9
$PSTYLEMODE
290
1
  9
$FINGERPRINTGUID
  2
{7DCC6E4F-7B20-4ECD-BD45-F86D01C39E43}
  9
$VERSIONGUID
  2
{F7002EF4-F190-45B0-990A-931DC937E8D9}
  9
$EXTNAMES
290
1
  9
$PSVPSCALE
 40
0.0
  9
$OLESTARTUP
290
0
  0
ENDSEC
  0
SECTION
  2
CLASSES
  0
CLASS
  1
ACDBDICTIONARYWDFLT
  2
AcDbDictionaryWithDefault
  3
ObjectDBX Classes
 90
0
280
0
281
0
  0
CLASS
  1
SUN
  2
AcDbSun
  3
SCENEOE
 90
1153
280
0
281
0
  0
CLASS
  1
VISUALSTYLE
  2
AcDbVisualStyle
  3
ObjectDBX Classes
 90
4095
280
0
281
0
  0
CLASS
  1
MATERIAL
  2
AcDbMaterial
  3
ObjectDBX Classes
 90
1153
280
0
281
0
  0
CLASS
  1
SCALE
  2
AcDbScale
  3
ObjectDBX Classes
 90
1153
280
0
281
0
  0
CLASS
  1
TABLESTYLE
  2
AcDbTableStyle
  3
ObjectDBX Classes
 90
4095
280
0
281
0
  0
CLASS
  1
MLEADERSTYLE
  2
AcDbMLeaderStyle
  3
ACDB_MLEADERSTYLE_CLASS
 90
4095
280
0
281
0
  0
CLASS
  1
DICTIONARYVAR
  2
AcDbDictionaryVar
  3
ObjectDBX Classes
 90
0
280
0
281
0
  0
CLASS
  1
CELLSTYLEMAP
  2
AcDbCellStyleMap
  3
ObjectDBX Classes
 90
1152
280
0
281
0
  0
CLASS
  1
MENTALRAYRENDERSETTINGS
  2
AcDbMentalRayRenderSettings
  3
SCENEOE
 90
1024
280
0
281
0
  0
CLASS
  1
ACDBDETAILVIEWSTYLE
  2
AcDbDetailViewStyle
  3
ObjectDBX Classes
 90
1025
280
0
281
0
  0
CLASS
  1
ACDBSECTIONVIEWSTYLE
  2
AcDbSectionViewStyle
  3
ObjectDBX Classes
 90
1025
280
0
281
0
  0
CLASS
  1
RASTERVARIABLES
  2
AcDbRasterVariables
  3
ISM
 90
0
280
0
281
0
  0
CLASS
  1
ACDBPLACEHOLDER
  2
AcDbPlaceHolder
  3
ObjectDBX Classes
 90
0
280
0
281
0
  0
CLASS
  1
LAYOUT
  2
AcDbLayout
  3
ObjectDBX Classes
 90
0
280
0
281
0
  0
ENDSEC
  0
SECTION
  2
TABLES
  0
TABLE
  2
VPORT
  5
8
330
0
100
AcDbSymbolTable
 70
1
  0
VPORT
  5
23
330
8
100
AcDbSymbolTableRecord
100
AcDbViewportTableRecord
  2
*Active
 70
0
 10
0.0
 20
0.0
 11
1.0
 21
1.0
 12
0.0
 22
0.0
 13
0.0
 23
0.0
 14
0.5
 24
0.5
 15
0.5
 25
0.5
 16
0.0
 26
0.0
 36
1.0
 17
0.0
 27
0.0
 37
0.0
 40
1000.0
 41
1.34
 42
50.0
 43
0.0
 44
0.0
 50
0.0
 51
0.0
 71
0
 72
1000
 73
1
 74
3
 75
0
 76
0
 77
0
 78
0
281
0
 65
0
146
0.0
  0
ENDTAB
  0
TABLE
  2
LTYPE
  5
2
330
0
100
AcDbSymbolTable
 70
3
  0
LTYPE
  5
24
330
2
100
AcDbSymbolTableRecord
100
AcDbLinetypeTableRecord
  2
ByBlock
 70
0
  3

 72
65
 73
0
 40
0.0
  0
LTYPE
  5
25
330
2
100
AcDbSymbolTableRecord
100
AcDbLinetypeTableRecord
  2
ByLayer
 70
0
  3

 72
65
 73
0
 40
0.0
  0
LTYPE
  5
26
330
2
100
AcDbSymbolTableRecord
100
AcDbLinetypeTableRecord
  2
Continuous
 70
0
  3

 72
65
 73
0
 40
0.0
  0
ENDTAB
  0
TABLE
  2
LAYER
  5
1
330
0
100
AcDbSymbolTable
 70
2
  0
LAYER
  5
27
330
1
100
AcDbSymbolTableRecord
100
AcDbLayerTableRecord
  2
0
 70
0
 62
7
  6
Continuous
370
-3
390
13
  0
LAYER
  5
28
330
1
100
AcDbSymbolTableRecord
100
AcDbLayerTableRecord
  2
Defpoints
 70
0
 62
7
  6
Continuous
290
0
370
-3
390
13
  0
ENDTAB
  0
TABLE
  2
STYLE
  5
5
330
0
100
AcDbSymbolTable
 70
1
  0
STYLE
  5
29
330
5
100
AcDbSymbolTableRecord
100
AcDbTextStyleTableRecord
  2
Standard
 70
0
 40
0.0
 41
1.0
 50
0.0
 71
0
 42
2.5
  3
txt
  4

  0
ENDTAB
  0
TABLE
  2
VIEW
  5
7
330
0
100
AcDbSymbolTable
 70
0
  0
ENDTAB
  0
TABLE
  2
UCS
  5
6
330
0
100
AcDbSymbolTable
 70
0
  0
ENDTAB
  0
TABLE
  2
APPID
  5
3
330
0
100
AcDbSymbolTable
 70
3
  0
APPID
  5
2A
330
3
100
AcDbSymbolTableRecord
100
AcDbRegAppTableRecord
  2
ACAD
 70
0
  0
APPID
  5
245
330
3
100
AcDbSymbolTableRecord
100
AcDbRegAppTableRecord
  2
HATCHBACKGROUNDCOLOR
 70
0
  0
APPID
  5
246
330
3
100
AcDbSymbolTableRecord
100
AcDbRegAppTableRecord
  2
EZDXF
 70
0
  0
ENDTAB
  0
TABLE
  2
DIMSTYLE
  5
4
330
0
100
AcDbSymbolTable
 70
1
100
AcDbDimStyleTable
  0
DIMSTYLE
105
2B
330
4
100
AcDbSymbolTableRecord
100
AcDbDimStyleTableRecord
  2
Standard
 70
0
  3

  4

 40
1.0
 41
2.5
 42
0.625
 43
3.75
 44
1.25
 45
0.0
 46
0.0
 47
0.0
 48
0.0
140
2.5
141
2.5
142
0.0
143
0.03937007874
144
1.0
145
0.0
146
1.0
147
0.625
148
0.0
 71
0
 72
0
 73
0
 74
0
 75
0
 76
0
 77
1
 78
8
 79
3
170
0
171
3
172
1
173
0
174
0
175
0
176
0
177
0
178
0
179
2
271
2
272
2
273
2
274
3
275
0
276
0
277
2
278
44
279
0
280
0
281
0
282
0
283
0
284
8
285
0
286
0
288
0
289
3
371
-2
372
-2
  0
ENDTAB
  0
TABLE
  2
BLOCK_RECORD
  5
9
330
0
100
AcDbSymbolTable
 70
2
  0
BLOCK_RECORD
  5
17
330
9
100
AcDbSymbolTableRecord
100
AcDbBlockTableRecord
  2
*Model_Space
340
1A
  0
BLOCK_RECORD
  5
1B
330
9
100
AcDbSymbolTableRecord
100
AcDbBlockTableRecord
  2
*Paper_Space
340
1E
  0
ENDTAB
  0
ENDSEC
  0
SECTION
  2
BLOCKS
  0
BLOCK
  5
18
330
17
100
AcDbEntity
  8
0
100
AcDbBlockBegin
  2
*Model_Space
 70
0
 10
0.0
 20
0.0
 30
0.0
  3
*Model_Space
  1

  0
ENDBLK
  5
19
330
17
100
AcDbEntity
  8
0
100
AcDbBlockEnd
  0
BLOCK
  5
1C
330
1B
100
AcDbEntity
  8
0
100
AcDbBlockBegin
  2
*Paper_Space
 70
0
 10
0.0
 20
0.0
 30
0.0
  3
*Paper_Space
  1

  0
ENDBLK
  5
1D
330
1B
100
AcDbEntity
  8
0
100
AcDbBlockEnd
  0
ENDSEC
  0
SECTION
  2
ENTITIES
  0
LINE
  5
2F
330
17
100
AcDbEntity
  8
0
100
AcDbLine
 10
10.0
 20
0.0
 30
0.0
 11
5.000000000000001
 21
8.660254037844386
 31
0.0
  0
LINE
  5
30
330
17
100
AcDbEntity
  8
0
100
AcDbLine
 10
5.000000000000001
 20
8.660254037844386
 30
0.0
 11
-4.999999999999998
 21
8.660254037844389
 31
0.0
  0
LINE
  5
31
330
17
100
AcDbEntity
  8
0
100
AcDbLine
 10
-4.999999999999998
 20
8.660254037844389
 30
0.0
 11
-10.0
 21
1.2246467991473533e-15
 31
0.0
  0
LINE
  5
32
330
17
100
AcDbEntity
  8
0
100
AcDbLine
 10
-10.0
 20
1.2246467991473533e-15
 30
0.0
 11
-5.000000000000004
 21
-8.660254037844384
 31
0.0
  0
LINE
  5
33
330
17
100
AcDbEntity
  8
0
100
AcDbLine
 10
-5.000000000000004
 20
-8.660254037844384
 30
0.0
 11
5.0
 21
-8.660254037844386
 31
0.0
  0
LINE
  5
34
330
17
100
AcDbEntity
  8
0
100
AcDbLine
 10
5.0
 20
-8.660254037844386
 30
0.0
 11
10.0
 21
0.0
 31
0.0
  0
LINE
  5
35
330
17
100
AcDbEntity
  8
0
100
AcDbLine
 10
17.320508075688767
 20
30.0
 30
0.0
 11
-17.320508075688767
 21
30.0
 31
0.0
  0
LINE
  5
36
330
17
100
AcDbEntity
  8
0
100
AcDbLine
 10
15.0
 20
39.5
 30
0.0
 11
14.857959404769737
 21
40.851425990315434
 31
0.0
  0
LINE
  5
37
330
17
100
AcDbEntity
  8
0
100
AcDbLine
 10
14.857959404769737
 20
40.851425990315434
 30
0.0
 11
14.438045474676905
 21
42.143788179992704
 31
0.0
  0
LINE
  5
38
330
17
100
AcDbEntity
  8
0
100
AcDbLine
 10
14.438045474676905
 20
42.143788179992704
 30
0.0
 11
13.758610463437158
 21
43.32060413990108
 31
0.0
  0
LINE
  5
39
330
17
100
AcDbEntity
  8
0
100
AcDbLine
 10
13.758610463437158
 20
43.32060413990108
 30
0.0
 11
12.849348941332579
 21
44.330441365603065
 31
0.0
  0
LINE
  5
3A
330
17
100
AcDbEntity
  8
0
100
AcDbLine
 10
12.849348941332579
 20
44.330441365603065
 30
0.0
 11
11.75
 21
45.12916512459885
 31
0.0
  0
LINE
  5
3B
330
17
100
AcDbEntity
  8
0
100
AcDbLine
 10
11.75
 20
45.12916512459885
 30
0.0
 11
10.508610463437158
 21
45.6818673559185
 31
0.0
  0
LINE
  5
3C
330
17
100
AcDbEntity
  8
0
100
AcDbLine
 10
10.508610463437158
 20
45.6818673559185
 30
0.0
 11
9.179435011239748
 21
45.964392319893776
 31
0.0
  0
LINE
  5
3D
330
17
100
AcDbEntity
  8
0
100
AcDbLine
 10
9.179435011239748
 20
45.964392319893776
 30
0.0
 11
7.820564988760253
 21
45.964392319893776
 31
0.0
  0
LINE
  5
3E
330
17
100
AcDbEntity
  8
0
100
AcDbLine
 10
7.820564988760253
 20
45.964392319893776
 30
0.0
 11
6.491389536562842
 21
45.6818673559185
 31
0.0
  0
LINE
  5
3F
330
17
100
AcDbEntity
  8
0
100
AcDbLine
 10
6.491389536562842
 20
45.6818673559185
 30
0.0
 11
5.250000000000002
 21
45.129165124598856
 31
0.0
  0
LINE
  5
40
330
17
100
AcDbEntity
  8
0
100
AcDbLine
 10
5.250000000000002
 20
45.129165124598856
 30
0.0
 11
4.150651058667424
 21
44.330441365603065
 31
0.0
  0
LINE
  5
41
330
17
100
AcDbEntity
  8
0
100
AcDbLine
 10
4.150651058667424
 20
44.330441365603065
 30
0.0
 11
3.241389536562842
 21
43.32060413990108
 31
0.0
  0
LINE
  5
42
330
17
100
AcDbEntity
  8
0
100
AcDbLine
 10
3.241389536562842
 20
43.32060413990108
 30
0.0
 11
2.5619545253230953
 21
42.143788179992704
 31
0.0
  0
LINE
  5
43
330
17
100
AcDbEntity
  8
0
100
AcDbLine
 10
2.5619545253230953
 20
42.143788179992704
 30
0.0
 11
2.142040595230264
 21
40.85142599031544
 31
0.0
  0
LINE
  5
44
330
17
100
AcDbEntity
  8
0
100
AcDbLine
 10
2.142040595230264
 20
40.85142599031544
 30
0.0
 11
2.0
 21
39.5
 31
0.0
  0
LINE
  5
45
330
17
100
AcDbEntity
  8
0
100
AcDbLine
 10
2.0
 20
39.5
 30
0.0
 11
2.142040595230263
 21
38.148574009684566
 31
0.0
  0
LINE
  5
46
330
17
100
AcDbEntity
  8
0
100
AcDbLine
 10
2.142040595230263
 20
38.148574009684566
 30
0.0
 11
2.5619545253230926
 21
36.8562118200073
 31
0.0
  0
LINE
  5
47
330
17
100
AcDbEntity
  8
0
100
AcDbLine
 10
2.5619545253230926
 20
36.8562118200073
 30
0.0
 11
3.241389536562842
 21
35.67939586009893
 31
0.0
  0
LINE
  5
48
330
17
100
AcDbEntity
  8
0
100
AcDbLine
 10
3.241389536562842
 20
35.67939586009893
 30
0.0
 11
4.15065105866742
 21
34.669558634396935
 31
0.0
  0
LINE
  5
49
330
17
100
AcDbEntity
  8
0
100
AcDbLine
 10
4.15065105866742
 20
34.669558634396935
 30
0.0
 11
5.249999999999997
 21
33.87083487540115
 31
0.0
  0
LINE
  5
4A
330
17
100
AcDbEntity
  8
0
100
AcDbLine
 10
5.249999999999997
 20
33.87083487540115
 30
0.0
 11
6.49138953656284
 21
33.3181326440815
 31
0.0
  0
LINE
  5
4B
330
17
100
AcDbEntity
  8
0
100
AcDbLine
 10
6.49138953656284
 20
33.3181326440815
 30
0.0
 11
7.820564988760248
 21
33.035607680106224
 31
0.0
  0
LINE
  5
4C
330
17
100
AcDbEntity
  8
0
100
AcDbLine
 10
7.820564988760248
 20
33.035607680106224
 30
0.0
 11
9.179435011239745
 21
33.035607680106224
 31
0.0
  0
LINE
  5
4D
330
17
100
AcDbEntity
  8
0
100
AcDbLine
 10
9.179435011239745
 20
33.035607680106224
 30
0.0
 11
10.508610463437158
 21
33.3181326440815
 31
0.0
  0
LINE
  5
4E
330
17
100
AcDbEntity
  8
0
100
AcDbLine
 10
10.508610463437158
 20
33.3181326440815
 30
0.0
 11
11.749999999999995
 21
33.870834875401144
 31
0.0
  0
LINE
  5
4F
330
17
100
AcDbEntity
  8
0
100
AcDbLine
 10
11.749999999999995
 20
33.870834875401144
 30
0.0
 11
12.849348941332575
 21
34.669558634396935
 31
0.0
  0
LINE
  5
50
330
17
100
AcDbEntity
  8
0
100
AcDbLine
 10
12.849348941332575
 20
34.669558634396935
 30
0.0
 11
13.758610463437158
 21
35.67939586009892
 31
0.0
  0
LINE
  5
51
330
17
100
AcDbEntity
  8
0
100
AcDbLine
 10
13.758610463437158
 20
35.67939586009892
 30
0.0
 11
14.438045474676905
 21
36.856211820007296
 31
0.0
  0
LINE
  5
52
330
17
100
AcDbEntity
  8
0
100
AcDbLine
 10
14.438045474676905
 20
36.856211820007296
 30
0.0
 11
14.857959404769737
 21
38.14857400968456
 31
0.0
  0
LINE
  5
53
330
17
100
AcDbEntity
  8
0
100
AcDbLine
 10
14.857959404769737
 20
38.14857400968456
 30
0.0
 11
15.0
 21
39.5
 31
0.0
  0
LINE
  5
54
330
17
100
AcDbEntity
  8
0
100
AcDbLine
 10
-2.0
 20
39.5
 30
0.0
 11
-2.142040595230263
 21
40.851425990315434
 31
0.0
  0
LINE
  5
55
330
17
100
AcDbEntity
  8
0
100
AcDbLine
 10
-2.142040595230263
 20
40.851425990315434
 30
0.0
 11
-2.5619545253230944
 21
42.143788179992704
 31
0.0
  0
LINE
  5
56
330
17
100
AcDbEntity
  8
0
100
AcDbLine
 10
-2.5619545253230944
 20
42.143788179992704
 30
0.0
 11
-3.241389536562842
 21
43.32060413990108
 31
0.0
  0
LINE
  5
57
330
17
100
AcDbEntity
  8
0
100
AcDbLine
 10
-3.241389536562842
 20
43.32060413990108
 30
0.0
 11
-4.150651058667421
 21
44.330441365603065
 31
0.0
  0
LINE
  5
58
330
17
100
AcDbEntity
  8
0
100
AcDbLine
 10
-4.150651058667421
 20
44.330441365603065
 30
0.0
 11
-5.249999999999999
 21
45.12916512459885
 31
0.0
  0
LINE
  5
59
330
17
100
AcDbEntity
  8
0
100
AcDbLine
 10
-5.249999999999999
 20
45.12916512459885
 30
0.0
 11
-6.491389536562842
 21
45.6818673559185
 31
0.0
  0
LINE
  5
5A
330
17
100
AcDbEntity
  8
0
100
AcDbLine
 10
-6.491389536562842
 20
45.6818673559185
 30
0.0
 11
-7.8205649887602515
 21
45.964392319893776
 31
0.0
  0
LINE
  5
5B
330
17
100
AcDbEntity
  8
0
100
AcDbLine
 10
-7.8205649887602515
 20
45.964392319893776
 30
0.0
 11
-9.179435011239747
 21
45.964392319893776
 31
0.0
  0
LINE
  5
5C
330
17
100
AcDbEntity
  8
0
100
AcDbLine
 10
-9.179435011239747
 20
45.964392319893776
 30
0.0
 11
-10.508610463437158
 21
45.6818673559185
 31
0.0
  0
LINE
  5
5D
330
17
100
AcDbEntity
  8
0
100
AcDbLine
 10
-10.508610463437158
 20
45.6818673559185
 30
0.0
 11
-11.749999999999998
 21
45.129165124598856
 31
0.0
  0
LINE
  5
5E
330
17
100
AcDbEntity
  8
0
100
AcDbLine
 10
-11.749999999999998
 20
45.129165124598856
 30
0.0
 11
-12.849348941332575
 21
44.330441365603065
 31
0.0
  0
LINE
  5
5F
330
17
100
AcDbEntity
  8
0
100
AcDbLine
 10
-12.849348941332575
 20
44.330441365603065
 30
0.0
 11
-13.758610463437158
 21
43.32060413990108
 31
0.0
  0
LINE
  5
60
330
17
100
AcDbEntity
  8
0
100
AcDbLine
 10
-13.758610463437158
 20
43.32060413990108
 30
0.0
 11
-14.438045474676905
 21
42.143788179992704
 31
0.0
  0
LINE
  5
61
330
17
100
AcDbEntity
  8
0
100
AcDbLine
 10
-14.438045474676905
 20
42.143788179992704
 30
0.0
 11
-14.857959404769737
 21
40.85142599031544
 31
0.0
  0
LINE
  5
62
330
17
100
AcDbEntity
  8
0
100
AcDbLine
 10
-14.857959404769737
 20
40.85142599031544
 30
0.0
 11
-15.0
 21
39.5
 31
0.0
  0
LINE
  5
63
330
17
100
AcDbEntity
  8
0
100
AcDbLine
 10
-15.0
 20
39.5
 30
0.0
 11
-14.857959404769737
 21
38.148574009684566
 31
0.0
  0
LINE
  5
64
330
17
100
AcDbEntity
  8
0
100
AcDbLine
 10
-14.857959404769737
 20
38.148574009684566
 30
0.0
 11
-14.438045474676908
 21
36.8562118200073
 31
0.0
  0
LINE
  5
65
330
17
100
AcDbEntity
  8
0
100
AcDbLine
 10
-14.438045474676908
 20
36.8562118200073
 30
0.0
 11
-13.758610463437158
 21
35.67939586009893
 31
0.0
  0
LINE
  5
66
330
17
100
AcDbEntity
  8
0
100
AcDbLine
 10
-13.758610463437158
 20
35.67939586009893
 30
0.0
 11
-12.849348941332579
 21
34.669558634396935
 31
0.0
  0
LINE
  5
67
330
17
100
AcDbEntity
  8
0
100
AcDbLine
 10
-12.849348941332579
 20
34.669558634396935
 30
0.0
 11
-11.750000000000004
 21
33.87083487540115
 31
0.0
  0
LINE
  5
68
330
17
100
AcDbEntity
  8
0
100
AcDbLine
 10
-11.750000000000004
 20
33.87083487540115
 30
0.0
 11
-10.50861046343716
 21
33.3181326440815
 31
0.0
  0
LINE
  5
69
330
17
100
AcDbEntity
  8
0
100
AcDbLine
 10
-10.50861046343716
 20
33.3181326440815
 30
0.0
 11
-9.179435011239752
 21
33.035607680106224
 31
0.0
  0
LINE
  5
6A
330
17
100
AcDbEntity
  8
0
100
AcDbLine
 10
-9.179435011239752
 20
33.035607680106224
 30
0.0
 11
-7.820564988760255
 21
33.035607680106224
 31
0.0
  0
LINE
  5
6B
330
17
100
AcDbEntity
  8
0
100
AcDbLine
 10
-7.820564988760255
 20
33.035607680106224
 30
0.0
 11
-6.491389536562843
 21
33.3181326440815
 31
0.0
  0
LINE
  5
6C
330
17
100
AcDbEntity
  8
0
100
AcDbLine
 10
-6.491389536562843
 20
33.3181326440815
 30
0.0
 11
-5.250000000000005
 21
33.870834875401144
 31
0.0
  0
LINE
  5
6D
330
17
100
AcDbEntity
  8
0
100
AcDbLine
 10
-5.250000000000005
 20
33.870834875401144
 30
0.0
 11
-4.150651058667425
 21
34.669558634396935
 31
0.0
  0
LINE
  5
6E
330
17
100
AcDbEntity
  8
0
100
AcDbLine
 10
-4.150651058667425
 20
34.669558634396935
 30
0.0
 11
-3.241389536562842
 21
35.67939586009892
 31
0.0
  0
LINE
  5
6F
330
17
100
AcDbEntity
  8
0
100
AcDbLine
 10
-3.241389536562842
 20
35.67939586009892
 30
0.0
 11
-2.561954525323096
 21
36.856211820007296
 31
0.0
  0
LINE
  5
70
330
17
100
AcDbEntity
  8
0
100
AcDbLine
 10
-2.561954525323096
 20
36.856211820007296
 30
0.0
 11
-2.142040595230264
 21
38.14857400968456
 31
0.0
  0
LINE
  5
71
330
17
100
AcDbEntity
  8
0
100
AcDbLine
 10
-2.142040595230264
 20
38.14857400968456
 30
0.0
 11
-2.0
 21
39.5
 31
0.0
  0
LINE
  5
72
330
17
100
AcDbEntity
  8
0
100
AcDbLine
 10
-15.0
 20
49.0
 30
0.0
 11
15.0
 21
49.0
 31
0.0
  0
LINE
  5
73
330
17
100
AcDbEntity
  8
0
100
AcDbLine
 10
15.0
 20
49.0
 30
0.0
 11
15.0
 21
50.5
 31
0.0
  0
LINE
  5
74
330
17
100
AcDbEntity
  8
0
100
AcDbLine
 10
15.0
 20
50.5
 30
0.0
 11
-15.0
 21
50.5
 31
0.0
  0
LINE
  5
75
330
17
100
AcDbEntity
  8
0
100
AcDbLine
 10
-15.0
 20
50.5
 30
0.0
 11
-15.0
 21
49.0
 31
0.0
  0
LINE
  5
76
330
17
100
AcDbEntity
  8
0
100
AcDbLine
 10
17.320508075688767
 20
30.0
 30
0.0
 11
17.320508075688767
 21
40.02296333559582
 31
0.0
  0
LINE
  5
77
330
17
100
AcDbEntity
  8
0
100
AcDbLine
 10
17.320508075688767
 20
40.02296333559582
 30
0.0
 11
20.011491654094492
 21
41.09639084537895
 31
0.0
  0
LINE
  5
78
330
17
100
AcDbEntity
  8
0
100
AcDbLine
 10
20.011491654094492
 20
41.09639084537895
 30
0.0
 11
22.281828702612614
 21
42.89617108866824
 31
0.0
  0
LINE
  5
79
330
17
100
AcDbEntity
  8
0
100
AcDbLine
 10
22.281828702612614
 20
42.89617108866824
 30
0.0
 11
23.940955319903686
 21
45.27123700476505
 31
0.0
  0
LINE
  5
7A
330
17
100
AcDbEntity
  8
0
100
AcDbLine
 10
23.940955319903686
 20
45.27123700476505
 30
0.0
 11
24.84961040321052
 21
48.0222341290073
 31
0.0
  0
LINE
  5
7B
330
17
100
AcDbEntity
  8
0
100
AcDbLine
 10
24.84961040321052
 20
48.0222341290073
 30
0.0
 11
24.931524722922504
 21
50.918253687338115
 31
0.0
  0
LINE
  5
7C
330
17
100
AcDbEntity
  8
0
100
AcDbLine
 10
24.931524722922504
 20
50.918253687338115
 30
0.0
 11
24.179822686558754
 21
53.71621424576904
 31
0.0
  0
LINE
  5
7D
330
17
100
AcDbEntity
  8
0
100
AcDbLine
 10
24.179822686558754
 20
53.71621424576904
 30
0.0
 11
22.657599451196404
 21
56.1812650890036
 31
0.0
  0
LINE
  5
7E
330
17
100
AcDbEntity
  8
0
100
AcDbLine
 10
22.657599451196404
 20
56.1812650890036
 30
0.0
 11
20.492624943608917
 21
58.106498742227224
 31
0.0
  0
LINE
  5
7F
330
17
100
AcDbEntity
  8
0
100
AcDbLine
 10
20.492624943608917
 20
58.106498742227224
 30
0.0
 11
17.866619313558026
 21
59.33031803809958
 31
0.0
  0
LINE
  5
80
330
17
100
AcDbEntity
  8
0
100
AcDbLine
 10
17.866619313558026
 20
59.33031803809958
 30
0.0
 11
15.0
 21
59.75
 31
0.0
  0
LINE
  5
81
330
17
100
AcDbEntity
  8
0
100
AcDbLine
 10
-17.320508075688767
 20
30.0
 30
0.0
 11
-17.320508075688767
 21
40.02296333559582
 31
0.0
  0
LINE
  5
82
330
17
100
AcDbEntity
  8
0
100
AcDbLine
 10
-17.320508075688767
 20
40.02296333559582
 30
0.0
 11
-20.011491654094492
 21
41.09639084537895
 31
0.0
  0
LINE
  5
83
330
17
100
AcDbEntity
  8
0
100
AcDbLine
 10
-20.011491654094492
 20
41.09639084537895
 30
0.0
 11
-22.281828702612614
 21
42.89617108866824
 31
0.0
  0
LINE
  5
84
330
17
100
AcDbEntity
  8
0
100
AcDbLine
 10
-22.281828702612614
 20
42.89617108866824
 30
0.0
 11
-23.940955319903686
 21
45.27123700476505
 31
0.0
  0
LINE
  5
85
330
17
100
AcDbEntity
  8
0
100
AcDbLine
 10
-23.940955319903686
 20
45.27123700476505
 30
0.0
 11
-24.84961040321052
 21
48.0222341290073
 31
0.0
  0
LINE
  5
86
330
17
100
AcDbEntity
  8
0
100
AcDbLine
 10
-24.84961040321052
 20
48.0222341290073
 30
0.0
 11
-24.931524722922504
 21
50.918253687338115
 31
0.0
  0
LINE
  5
87
330
17
100
AcDbEntity
  8
0
100
AcDbLine
 10
-24.931524722922504
 20
50.918253687338115
 30
0.0
 11
-24.179822686558754
 21
53.71621424576904
 31
0.0
  0
LINE
  5
88
330
17
100
AcDbEntity
  8
0
100
AcDbLine
 10
-24.179822686558754
 20
53.71621424576904
 30
0.0
 11
-22.657599451196404
 21
56.1812650890036
 31
0.0
  0
LINE
  5
89
330
17
100
AcDbEntity
  8
0
100
AcDbLine
 10
-22.657599451196404
 20
56.1812650890036
 30
0.0
 11
-20.492624943608917
 21
58.106498742227224
 31
0.0
  0
LINE
  5
8A
330
17
100
AcDbEntity
  8
0
100
AcDbLine
 10
-20.492624943608917
 20
58.106498742227224
 30
0.0
 11
-17.866619313558026
 21
59.33031803809958
 31
0.0
  0
LINE
  5
8B
330
17
100
AcDbEntity
  8
0
100
AcDbLine
 10
-17.866619313558026
 20
59.33031803809958
 30
0.0
 11
-15.0
 21
59.75
 31
0.0
  0
LINE
  5
8C
330
17
100
AcDbEntity
  8
0
100
AcDbLine
 10
15.0
 20
59.75
 30
0.0
 11
-15.0
 21
59.75
 31
0.0
  0
LINE
  5
8D
330
17
100
AcDbEntity
  8
0
100
AcDbLine
 10
34.64101615137754
 20
8.881784197001252e-15
 30
0.0
 11
17.32050807568877
 21
30.0
 31
0.0
  0
LINE
  5
8E
330
17
100
AcDbEntity
  8
0
100
AcDbLine
 10
41.708003449485325
 20
6.759618943233425
 30
0.0
 11
42.807352390817904
 21
7.558342702229211
 31
0.0
  0
LINE
  5
8F
330
17
100
AcDbEntity
  8
0
100
AcDbLine
 10
42.807352390817904
 20
7.558342702229211
 30
0.0
 11
43.71661391292249
 21
8.568179927931203
 31
0.0
  0
LINE
  5
90
330
17
100
AcDbEntity
  8
0
100
AcDbLine
 10
43.71661391292249
 20
8.568179927931203
 30
0.0
 11
44.39604892416224
 21
9.744995887839575
 31
0.0
  0
LINE
  5
91
330
17
100
AcDbEntity
  8
0
100
AcDbLine
 10
44.39604892416224
 20
9.744995887839575
 30
0.0
 11
44.81596285425506
 21
11.03735807751684
 31
0.0
  0
LINE
  5
92
330
17
100
AcDbEntity
  8
0
100
AcDbLine
 10
44.81596285425506
 20
11.03735807751684
 30
0.0
 11
44.958003449485325
 21
12.388784067832274
 31
0.0
  0
LINE
  5
93
330
17
100
AcDbEntity
  8
0
100
AcDbLine
 10
44.958003449485325
 20
12.388784067832274
 30
0.0
 11
44.81596285425506
 21
13.740210058147712
 31
0.0
  0
LINE
  5
94
330
17
100
AcDbEntity
  8
0
100
AcDbLine
 10
44.81596285425506
 20
13.740210058147712
 30
0.0
 11
44.39604892416223
 21
15.032572247824977
 31
0.0
  0
LINE
  5
95
330
17
100
AcDbEntity
  8
0
100
AcDbLine
 10
44.39604892416223
 20
15.032572247824977
 30
0.0
 11
43.71661391292248
 21
16.209388207733348
 31
0.0
  0
LINE
  5
96
330
17
100
AcDbEntity
  8
0
100
AcDbLine
 10
43.71661391292248
 20
16.209388207733348
 30
0.0
 11
42.807352390817904
 21
17.219225433435337
 31
0.0
  0
LINE
  5
97
330
17
100
AcDbEntity
  8
0
100
AcDbLine
 10
42.807352390817904
 20
17.219225433435337
 30
0.0
 11
41.708003449485325
 21
18.01794919243113
 31
0.0
  0
LINE
  5
98
330
17
100
AcDbEntity
  8
0
100
AcDbLine
 10
41.708003449485325
 20
18.01794919243113
 30
0.0
 11
40.46661391292248
 21
18.570651423750775
 31
0.0
  0
LINE
  5
99
330
17
100
AcDbEntity
  8
0
100
AcDbLine
 10
40.46661391292248
 20
18.570651423750775
 30
0.0
 11
39.13743846072508
 21
18.85317638772605
 31
0.0
  0
LINE
  5
9A
330
17
100
AcDbEntity
  8
0
100
AcDbLine
 10
39.13743846072508
 20
18.85317638772605
 30
0.0
 11
37.778568438245586
 21
18.85317638772605
 31
0.0
  0
LINE
  5
9B
330
17
100
AcDbEntity
  8
0
100
AcDbLine
 10
37.778568438245586
 20
18.85317638772605
 30
0.0
 11
36.449392986048174
 21
18.570651423750775
 31
0.0
  0
LINE
  5
9C
330
17
100
AcDbEntity
  8
0
100
AcDbLine
 10
36.449392986048174
 20
18.570651423750775
 30
0.0
 11
35.208003449485325
 21
18.017949192431125
 31
0.0
  0
LINE
  5
9D
330
17
100
AcDbEntity
  8
0
100
AcDbLine
 10
35.208003449485325
 20
18.017949192431125
 30
0.0
 11
34.10865450815275
 21
17.219225433435337
 31
0.0
  0
LINE
  5
9E
330
17
100
AcDbEntity
  8
0
100
AcDbLine
 10
34.10865450815275
 20
17.219225433435337
 30
0.0
 11
33.19939298604817
 21
16.209388207733355
 31
0.0
  0
LINE
  5
9F
330
17
100
AcDbEntity
  8
0
100
AcDbLine
 10
33.19939298604817
 20
16.209388207733355
 30
0.0
 11
32.51995797480843
 21
15.032572247824978
 31
0.0
  0
LINE
  5
A0
330
17
100
AcDbEntity
  8
0
100
AcDbLine
 10
32.51995797480843
 20
15.032572247824978
 30
0.0
 11
32.10004404471559
 21
13.740210058147712
 31
0.0
  0
LINE
  5
A1
330
17
100
AcDbEntity
  8
0
100
AcDbLine
 10
32.10004404471559
 20
13.740210058147712
 30
0.0
 11
31.958003449485325
 21
12.38878406783228
 31
0.0
  0
LINE
  5
A2
330
17
100
AcDbEntity
  8
0
100
AcDbLine
 10
31.958003449485325
 20
12.38878406783228
 30
0.0
 11
32.10004404471559
 21
11.037358077516842
 31
0.0
  0
LINE
  5
A3
330
17
100
AcDbEntity
  8
0
100
AcDbLine
 10
32.10004404471559
 20
11.037358077516842
 30
0.0
 11
32.51995797480842
 21
9.744995887839579
 31
0.0
  0
LINE
  5
A4
330
17
100
AcDbEntity
  8
0
100
AcDbLine
 10
32.51995797480842
 20
9.744995887839579
 30
0.0
 11
33.19939298604817
 21
8.568179927931203
 31
0.0
  0
LINE
  5
A5
330
17
100
AcDbEntity
  8
0
100
AcDbLine
 10
33.19939298604817
 20
8.568179927931203
 30
0.0
 11
34.108654508152746
 21
7.558342702229213
 31
0.0
  0
LINE
  5
A6
330
17
100
AcDbEntity
  8
0
100
AcDbLine
 10
34.108654508152746
 20
7.558342702229213
 30
0.0
 11
35.20800344948532
 21
6.759618943233427
 31
0.0
  0
LINE
  5
A7
330
17
100
AcDbEntity
  8
0
100
AcDbLine
 10
35.20800344948532
 20
6.759618943233427
 30
0.0
 11
36.44939298604817
 21
6.206916711913779
 31
0.0
  0
LINE
  5
A8
330
17
100
AcDbEntity
  8
0
100
AcDbLine
 10
36.44939298604817
 20
6.206916711913779
 30
0.0
 11
37.77856843824558
 21
5.924391747938497
 31
0.0
  0
LINE
  5
A9
330
17
100
AcDbEntity
  8
0
100
AcDbLine
 10
37.77856843824558
 20
5.924391747938497
 30
0.0
 11
39.13743846072507
 21
5.924391747938499
 31
0.0
  0
LINE
  5
AA
330
17
100
AcDbEntity
  8
0
100
AcDbLine
 10
39.13743846072507
 20
5.924391747938499
 30
0.0
 11
40.46661391292248
 21
6.206916711913774
 31
0.0
  0
LINE
  5
AB
330
17
100
AcDbEntity
  8
0
100
AcDbLine
 10
40.46661391292248
 20
6.206916711913774
 30
0.0
 11
41.708003449485325
 21
6.759618943233425
 31
0.0
  0
LINE
  5
AC
330
17
100
AcDbEntity
  8
0
100
AcDbLine
 10
33.208003449485325
 20
21.482050807568882
 30
0.0
 11
34.3073523908179
 21
22.28077456656467
 31
0.0
  0
LINE
  5
AD
330
17
100
AcDbEntity
  8
0
100
AcDbLine
 10
34.3073523908179
 20
22.28077456656467
 30
0.0
 11
35.21661391292249
 21
23.29061179226666
 31
0.0
  0
LINE
  5
AE
330
17
100
AcDbEntity
  8
0
100
AcDbLine
 10
35.21661391292249
 20
23.29061179226666
 30
0.0
 11
35.89604892416223
 21
24.467427752175034
 31
0.0
  0
LINE
  5
AF
330
17
100
AcDbEntity
  8
0
100
AcDbLine
 10
35.89604892416223
 20
24.467427752175034
 30
0.0
 11
36.31596285425506
 21
25.759789941852297
 31
0.0
  0
LINE
  5
B0
330
17
100
AcDbEntity
  8
0
100
AcDbLine
 10
36.31596285425506
 20
25.759789941852297
 30
0.0
 11
36.458003449485325
 21
27.11121593216773
 31
0.0
  0
LINE
  5
B1
330
17
100
AcDbEntity
  8
0
100
AcDbLine
 10
36.458003449485325
 20
27.11121593216773
 30
0.0
 11
36.315962854255055
 21
28.46264192248317
 31
0.0
  0
LINE
  5
B2
330
17
100
AcDbEntity
  8
0
100
AcDbLine
 10
36.315962854255055
 20
28.46264192248317
 30
0.0
 11
35.89604892416223
 21
29.75500411216043
 31
0.0
  0
LINE
  5
B3
330
17
100
AcDbEntity
  8
0
100
AcDbLine
 10
35.89604892416223
 20
29.75500411216043
 30
0.0
 11
35.21661391292248
 21
30.931820072068806
 31
0.0
  0
LINE
  5
B4
330
17
100
AcDbEntity
  8
0
100
AcDbLine
 10
35.21661391292248
 20
30.931820072068806
 30
0.0
 11
34.3073523908179
 21
31.941657297770796
 31
0.0
  0
LINE
  5
B5
330
17
100
AcDbEntity
  8
0
100
AcDbLine
 10
34.3073523908179
 20
31.941657297770796
 30
0.0
 11
33.208003449485325
 21
32.74038105676658
 31
0.0
  0
LINE
  5
B6
330
17
100
AcDbEntity
  8
0
100
AcDbLine
 10
33.208003449485325
 20
32.74038105676658
 30
0.0
 11
31.966613912922483
 21
33.29308328808623
 31
0.0
  0
LINE
  5
B7
330
17
100
AcDbEntity
  8
0
100
AcDbLine
 10
31.966613912922483
 20
33.29308328808623
 30
0.0
 11
30.637438460725072
 21
33.575608252061514
 31
0.0
  0
LINE
  5
B8
330
17
100
AcDbEntity
  8
0
100
AcDbLine
 10
30.637438460725072
 20
33.575608252061514
 30
0.0
 11
29.27856843824558
 21
33.57560825206151
 31
0.0
  0
LINE
  5
B9
330
17
100
AcDbEntity
  8
0
100
AcDbLine
 10
29.27856843824558
 20
33.57560825206151
 30
0.0
 11
27.949392986048167
 21
33.29308328808624
 31
0.0
  0
LINE
  5
BA
330
17
100
AcDbEntity
  8
0
100
AcDbLine
 10
27.949392986048167
 20
33.29308328808624
 30
0.0
 11
26.708003449485325
 21
32.74038105676658
 31
0.0
  0
LINE
  5
BB
330
17
100
AcDbEntity
  8
0
100
AcDbLine
 10
26.708003449485325
 20
32.74038105676658
 30
0.0
 11
25.608654508152746
 21
31.941657297770796
 31
0.0
  0
LINE
  5
BC
330
17
100
AcDbEntity
  8
0
100
AcDbLine
 10
25.608654508152746
 20
31.941657297770796
 30
0.0
 11
24.699392986048167
 21
30.93182007206881
 31
0.0
  0
LINE
  5
BD
330
17
100
AcDbEntity
  8
0
100
AcDbLine
 10
24.699392986048167
 20
30.93182007206881
 30
0.0
 11
24.01995797480842
 21
29.755004112160435
 31
0.0
  0
LINE
  5
BE
330
17
100
AcDbEntity
  8
0
100
AcDbLine
 10
24.01995797480842
 20
29.755004112160435
 30
0.0
 11
23.60004404471558
 21
28.462641922483165
 31
0.0
  0
LINE
  5
BF
330
17
100
AcDbEntity
  8
0
100
AcDbLine
 10
23.60004404471558
 20
28.462641922483165
 30
0.0
 11
23.45800344948532
 21
27.111215932167738
 31
0.0
  0
LINE
  5
C0
330
17
100
AcDbEntity
  8
0
100
AcDbLine
 10
23.45800344948532
 20
27.111215932167738
 30
0.0
 11
23.600044044715588
 21
25.759789941852297
 31
0.0
  0
LINE
  5
C1
330
17
100
AcDbEntity
  8
0
100
AcDbLine
 10
23.600044044715588
 20
25.759789941852297
 30
0.0
 11
24.019957974808417
 21
24.467427752175034
 31
0.0
  0
LINE
  5
C2
330
17
100
AcDbEntity
  8
0
100
AcDbLine
 10
24.019957974808417
 20
24.467427752175034
 30
0.0
 11
24.699392986048167
 21
23.29061179226666
 31
0.0
  0
LINE
  5
C3
330
17
100
AcDbEntity
  8
0
100
AcDbLine
 10
24.699392986048167
 20
23.29061179226666
 30
0.0
 11
25.608654508152746
 21
22.28077456656467
 31
0.0
  0
LINE
  5
C4
330
17
100
AcDbEntity
  8
0
100
AcDbLine
 10
25.608654508152746
 20
22.28077456656467
 30
0.0
 11
26.708003449485318
 21
21.482050807568882
 31
0.0
  0
LINE
  5
C5
330
17
100
AcDbEntity
  8
0
100
AcDbLine
 10
26.708003449485318
 20
21.482050807568882
 30
0.0
 11
27.94939298604816
 21
20.929348576249236
 31
0.0
  0
LINE
  5
C6
330
17
100
AcDbEntity
  8
0
100
AcDbLine
 10
27.94939298604816
 20
20.929348576249236
 30
0.0
 11
29.278568438245575
 21
20.646823612273955
 31
0.0
  0
LINE
  5
C7
330
17
100
AcDbEntity
  8
0
100
AcDbLine
 10
29.278568438245575
 20
20.646823612273955
 30
0.0
 11
30.63743846072507
 21
20.646823612273955
 31
0.0
  0
LINE
  5
C8
330
17
100
AcDbEntity
  8
0
100
AcDbLine
 10
30.63743846072507
 20
20.646823612273955
 30
0.0
 11
31.96661391292248
 21
20.929348576249232
 31
0.0
  0
LINE
  5
C9
330
17
100
AcDbEntity
  8
0
100
AcDbLine
 10
31.96661391292248
 20
20.929348576249232
 30
0.0
 11
33.208003449485325
 21
21.482050807568882
 31
0.0
  0
LINE
  5
CA
330
17
100
AcDbEntity
  8
0
100
AcDbLine
 10
34.93524478543749
 20
37.49038105676659
 30
0.0
 11
49.93524478543749
 21
11.509618943233429
 31
0.0
  0
LINE
  5
CB
330
17
100
AcDbEntity
  8
0
100
AcDbLine
 10
49.93524478543749
 20
11.509618943233429
 30
0.0
 11
51.23428289111415
 21
12.259618943233429
 31
0.0
  0
LINE
  5
CC
330
17
100
AcDbEntity
  8
0
100
AcDbLine
 10
51.23428289111415
 20
12.259618943233429
 30
0.0
 11
36.23428289111415
 21
38.24038105676659
 31
0.0
  0
LINE
  5
CD
330
17
100
AcDbEntity
  8
0
100
AcDbLine
 10
36.23428289111415
 20
38.24038105676659
 30
0.0
 11
34.93524478543749
 21
37.49038105676659
 31
0.0
  0
LINE
  5
CE
330
17
100
AcDbEntity
  8
0
100
AcDbLine
 10
34.64101615137754
 20
8.881784197001252e-15
 30
0.0
 11
43.32115702120353
 21
5.011481667797918
 31
0.0
  0
LINE
  5
CF
330
17
100
AcDbEntity
  8
0
100
AcDbLine
 10
43.32115702120353
 20
5.011481667797918
 30
0.0
 11
45.59626430299966
 21
3.217735282623373
 31
0.0
  0
LINE
  5
D0
330
17
100
AcDbEntity
  8
0
100
AcDbLine
 10
45.59626430299966
 20
3.217735282623373
 30
0.0
 11
48.29008823917658
 21
2.15145584509834
 31
0.0
  0
LINE
  5
D1
330
17
100
AcDbEntity
  8
0
100
AcDbLine
 10
48.29008823917658
 20
2.15145584509834
 30
0.0
 11
51.17651896682452
 21
1.9021430044777325
 31
0.0
  0
LINE
  5
D2
330
17
100
AcDbEntity
  8
0
100
AcDbLine
 10
51.17651896682452
 20
1.9021430044777325
 30
0.0
 11
54.01327990380966
 21
2.4907231811772803
 31
0.0
  0
LINE
  5
D3
330
17
100
AcDbEntity
  8
0
100
AcDbLine
 10
54.01327990380966
 20
2.4907231811772803
 30
0.0
 11
56.56226357103672
 21
3.8677930785383907
 31
0.0
  0
LINE
  5
D4
330
17
100
AcDbEntity
  8
0
100
AcDbLine
 10
56.56226357103672
 20
3.8677930785383907
 30
0.0
 11
58.609517475242924
 21
5.917766417321353
 31
0.0
  0
LINE
  5
D5
330
17
100
AcDbEntity
  8
0
100
AcDbLine
 10
58.609517475242924
 20
5.917766417321353
 30
0.0
 11
59.98320250942313
 21
8.46857583099337
 31
0.0
  0
LINE
  5
D6
330
17
100
AcDbEntity
  8
0
100
AcDbLine
 10
59.98320250942313
 20
8.46857583099337
 30
0.0
 11
60.56801650754176
 21
11.306115579721649
 31
0.0
  0
LINE
  5
D7
330
17
100
AcDbEntity
  8
0
100
AcDbLine
 10
60.56801650754176
 20
11.306115579721649
 30
0.0
 11
60.31487229238336
 21
14.192212813762858
 31
0.0
  0
LINE
  5
D8
330
17
100
AcDbEntity
  8
0
100
AcDbLine
 10
60.31487229238336
 20
14.192212813762858
 30
0.0
 11
59.24501787612021
 21
16.884618943233427
 31
0.0
  0
LINE
  5
D9
330
17
100
AcDbEntity
  8
0
100
AcDbLine
 10
17.32050807568877
 20
30.0
 30
0.0
 11
26.000648945514765
 21
35.01148166779791
 31
0.0
  0
LINE
  5
DA
330
17
100
AcDbEntity
  8
0
100
AcDbLine
 10
26.000648945514765
 20
35.01148166779791
 30
0.0
 11
25.584772648905158
 21
37.87865556275558
 31
0.0
  0
LINE
  5
DB
330
17
100
AcDbEntity
  8
0
100
AcDbLine
 10
25.584772648905158
 20
37.87865556275558
 30
0.0
 11
26.00825953656397
 21
40.74471524356991
 31
0.0
  0
LINE
  5
DC
330
17
100
AcDbEntity
  8
0
100
AcDbLine
 10
26.00825953656397
 20
40.74471524356991
 30
0.0
 11
27.235563646920824
 21
43.36909400028732
 31
0.0
  0
LINE
  5
DD
330
17
100
AcDbEntity
  8
0
100
AcDbLine
 10
27.235563646920824
 20
43.36909400028732
 30
0.0
 11
29.16366950059913
 21
45.531510947830036
 31
0.0
  0
LINE
  5
DE
330
17
100
AcDbEntity
  8
0
100
AcDbLine
 10
29.16366950059913
 20
45.531510947830036
 30
0.0
 11
31.630738848114216
 21
47.05046060879974
 31
0.0
  0
LINE
  5
DF
330
17
100
AcDbEntity
  8
0
100
AcDbLine
 10
31.630738848114216
 20
47.05046060879974
 30
0.0
 11
34.42969478868416
 21
47.7984478284477
 31
0.0
  0
LINE
  5
E0
330
17
100
AcDbEntity
  8
0
100
AcDbLine
 10
34.42969478868416
 20
47.7984478284477
 30
0.0
 11
37.325603058226726
 21
47.71268925801024
 31
0.0
  0
LINE
  5
E1
330
17
100
AcDbEntity
  8
0
100
AcDbLine
 10
37.325603058226726
 20
47.71268925801024
 30
0.0
 11
40.07539156393285
 21
46.80038316250559
 31
0.0
  0
LINE
  5
E2
330
17
100
AcDbEntity
  8
0
100
AcDbLine
 10
40.07539156393285
 20
46.80038316250559
 30
0.0
 11
42.44825297882533
 21
45.138105224336734
 31
0.0
  0
LINE
  5
E3
330
17
100
AcDbEntity
  8
0
100
AcDbLine
 10
42.44825297882533
 20
45.138105224336734
 30
0.0
 11
44.24501787612021
 21
42.86538105676659
 31
0.0
  0
LINE
  5
E4
330
17
100
AcDbEntity
  8
0
100
AcDbLine
 10
59.24501787612021
 20
16.884618943233427
 30
0.0
 11
44.24501787612021
 21
42.86538105676659
 31
0.0
  0
LINE
  5
E5
330
17
100
AcDbEntity
  8
0
100
AcDbLine
 10
17.320508075688785
 20
-29.999999999999993
 30
0.0
 11
34.64101615137754
 21
5.329070518200751e-15
 31
0.0
  0
LINE
  5
E6
330
17
100
AcDbEntity
  8
0
100
AcDbLine
 10
26.708003449485336
 20
-32.74038105676657
 30
0.0
 11
27.949392986048174
 21
-33.293083288086216
 31
0.0
  0
LINE
  5
E7
330
17
100
AcDbEntity
  8
0
100
AcDbLine
 10
27.949392986048174
 20
-33.293083288086216
 30
0.0
 11
29.278568438245593
 21
-33.5756082520615
 31
0.0
  0
LINE
  5
E8
330
17
100
AcDbEntity
  8
0
100
AcDbLine
 10
29.278568438245593
 20
-33.5756082520615
 30
0.0
 11
30.637438460725086
 21
-33.5756082520615
 31
0.0
  0
LINE
  5
E9
330
17
100
AcDbEntity
  8
0
100
AcDbLine
 10
30.637438460725086
 20
-33.5756082520615
 30
0.0
 11
31.9666139129225
 21
-33.29308328808622
 31
0.0
  0
LINE
  5
EA
330
17
100
AcDbEntity
  8
0
100
AcDbLine
 10
31.9666139129225
 20
-33.29308328808622
 30
0.0
 11
33.20800344948533
 21
-32.740381056766566
 31
0.0
  0
LINE
  5
EB
330
17
100
AcDbEntity
  8
0
100
AcDbLine
 10
33.20800344948533
 20
-32.740381056766566
 30
0.0
 11
34.30735239081792
 21
-31.94165729777078
 31
0.0
  0
LINE
  5
EC
330
17
100
AcDbEntity
  8
0
100
AcDbLine
 10
34.30735239081792
 20
-31.94165729777078
 30
0.0
 11
35.21661391292249
 21
-30.931820072068795
 31
0.0
  0
LINE
  5
ED
330
17
100
AcDbEntity
  8
0
100
AcDbLine
 10
35.21661391292249
 20
-30.931820072068795
 30
0.0
 11
35.89604892416224
 21
-29.75500411216042
 31
0.0
  0
LINE
  5
EE
330
17
100
AcDbEntity
  8
0
100
AcDbLine
 10
35.89604892416224
 20
-29.75500411216042
 30
0.0
 11
36.315962854255076
 21
-28.462641922483154
 31
0.0
  0
LINE
  5
EF
330
17
100
AcDbEntity
  8
0
100
AcDbLine
 10
36.315962854255076
 20
-28.462641922483154
 30
0.0
 11
36.45800344948534
 21
-27.111215932167724
 31
0.0
  0
LINE
  5
F0
330
17
100
AcDbEntity
  8
0
100
AcDbLine
 10
36.45800344948534
 20
-27.111215932167724
 30
0.0
 11
36.315962854255076
 21
-25.759789941852286
 31
0.0
  0
LINE
  5
F1
330
17
100
AcDbEntity
  8
0
100
AcDbLine
 10
36.315962854255076
 20
-25.759789941852286
 30
0.0
 11
35.896048924162244
 21
-24.46742775217502
 31
0.0
  0
LINE
  5
F2
330
17
100
AcDbEntity
  8
0
100
AcDbLine
 10
35.896048924162244
 20
-24.46742775217502
 30
0.0
 11
35.2166139129225
 21
-23.290611792266645
 31
0.0
  0
LINE
  5
F3
330
17
100
AcDbEntity
  8
0
100
AcDbLine
 10
35.2166139129225
 20
-23.290611792266645
 30
0.0
 11
34.30735239081791
 21
-22.28077456656466
 31
0.0
  0
LINE
  5
F4
330
17
100
AcDbEntity
  8
0
100
AcDbLine
 10
34.30735239081791
 20
-22.28077456656466
 30
0.0
 11
33.20800344948533
 21
-21.48205080756887
 31
0.0
  0
LINE
  5
F5
330
17
100
AcDbEntity
  8
0
100
AcDbLine
 10
33.20800344948533
 20
-21.48205080756887
 30
0.0
 11
31.966613912922494
 21
-20.929348576249225
 31
0.0
  0
LINE
  5
F6
330
17
100
AcDbEntity
  8
0
100
AcDbLine
 10
31.966613912922494
 20
-20.929348576249225
 30
0.0
 11
30.637438460725086
 21
-20.646823612273945
 31
0.0
  0
LINE
  5
F7
330
17
100
AcDbEntity
  8
0
100
AcDbLine
 10
30.637438460725086
 20
-20.646823612273945
 30
0.0
 11
29.27856843824559
 21
-20.64682361227395
 31
0.0
  0
LINE
  5
F8
330
17
100
AcDbEntity
  8
0
100
AcDbLine
 10
29.27856843824559
 20
-20.64682361227395
 30
0.0
 11
27.949392986048174
 21
-20.92934857624922
 31
0.0
  0
LINE
  5
F9
330
17
100
AcDbEntity
  8
0
100
AcDbLine
 10
27.949392986048174
 20
-20.92934857624922
 30
0.0
 11
26.70800344948534
 21
-21.482050807568868
 31
0.0
  0
LINE
  5
FA
330
17
100
AcDbEntity
  8
0
100
AcDbLine
 10
26.70800344948534
 20
-21.482050807568868
 30
0.0
 11
25.608654508152757
 21
-22.28077456656466
 31
0.0
  0
LINE
  5
FB
330
17
100
AcDbEntity
  8
0
100
AcDbLine
 10
25.608654508152757
 20
-22.28077456656466
 30
0.0
 11
24.699392986048178
 21
-23.290611792266645
 31
0.0
  0
LINE
  5
FC
330
17
100
AcDbEntity
  8
0
100
AcDbLine
 10
24.699392986048178
 20
-23.290611792266645
 30
0.0
 11
24.01995797480843
 21
-24.46742775217502
 31
0.0
  0
LINE
  5
FD
330
17
100
AcDbEntity
  8
0
100
AcDbLine
 10
24.01995797480843
 20
-24.46742775217502
 30
0.0
 11
23.6000440447156
 21
-25.759789941852286
 31
0.0
  0
LINE
  5
FE
330
17
100
AcDbEntity
  8
0
100
AcDbLine
 10
23.6000440447156
 20
-25.759789941852286
 30
0.0
 11
23.458003449485332
 21
-27.111215932167717
 31
0.0
  0
LINE
  5
FF
330
17
100
AcDbEntity
  8
0
100
AcDbLine
 10
23.458003449485332
 20
-27.111215932167717
 30
0.0
 11
23.6000440447156
 21
-28.462641922483158
 31
0.0
  0
LINE
  5
100
330
17
100
AcDbEntity
  8
0
100
AcDbLine
 10
23.6000440447156
 20
-28.462641922483158
 30
0.0
 11
24.019957974808428
 21
-29.75500411216042
 31
0.0
  0
LINE
  5
101
330
17
100
AcDbEntity
  8
0
100
AcDbLine
 10
24.019957974808428
 20
-29.75500411216042
 30
0.0
 11
24.699392986048178
 21
-30.931820072068795
 31
0.0
  0
LINE
  5
102
330
17
100
AcDbEntity
  8
0
100
AcDbLine
 10
24.699392986048178
 20
-30.931820072068795
 30
0.0
 11
25.608654508152753
 21
-31.94165729777078
 31
0.0
  0
LINE
  5
103
330
17
100
AcDbEntity
  8
0
100
AcDbLine
 10
25.608654508152753
 20
-31.94165729777078
 30
0.0
 11
26.708003449485336
 21
-32.74038105676657
 31
0.0
  0
LINE
  5
104
330
17
100
AcDbEntity
  8
0
100
AcDbLine
 10
35.20800344948533
 20
-18.017949192431114
 30
0.0
 11
36.44939298604817
 21
-18.570651423750757
 31
0.0
  0
LINE
  5
105
330
17
100
AcDbEntity
  8
0
100
AcDbLine
 10
36.44939298604817
 20
-18.570651423750757
 30
0.0
 11
37.778568438245586
 21
-18.853176387726037
 31
0.0
  0
LINE
  5
106
330
17
100
AcDbEntity
  8
0
100
AcDbLine
 10
37.778568438245586
 20
-18.853176387726037
 30
0.0
 11
39.13743846072508
 21
-18.853176387726037
 31
0.0
  0
LINE
  5
107
330
17
100
AcDbEntity
  8
0
100
AcDbLine
 10
39.13743846072508
 20
-18.853176387726037
 30
0.0
 11
40.4666139129225
 21
-18.57065142375076
 31
0.0
  0
LINE
  5
108
330
17
100
AcDbEntity
  8
0
100
AcDbLine
 10
40.4666139129225
 20
-18.57065142375076
 30
0.0
 11
41.70800344948533
 21
-18.01794919243111
 31
0.0
  0
LINE
  5
109
330
17
100
AcDbEntity
  8
0
100
AcDbLine
 10
41.70800344948533
 20
-18.01794919243111
 30
0.0
 11
42.80735239081791
 21
-17.219225433435323
 31
0.0
  0
LINE
  5
10A
330
17
100
AcDbEntity
  8
0
100
AcDbLine
 10
42.80735239081791
 20
-17.219225433435323
 30
0.0
 11
43.71661391292249
 21
-16.209388207733333
 31
0.0
  0
LINE
  5
10B
330
17
100
AcDbEntity
  8
0
100
AcDbLine
 10
43.71661391292249
 20
-16.209388207733333
 30
0.0
 11
44.39604892416224
 21
-15.03257224782496
 31
0.0
  0
LINE
  5
10C
330
17
100
AcDbEntity
  8
0
100
AcDbLine
 10
44.39604892416224
 20
-15.03257224782496
 30
0.0
 11
44.81596285425507
 21
-13.740210058147696
 31
0.0
  0
LINE
  5
10D
330
17
100
AcDbEntity
  8
0
100
AcDbLine
 10
44.81596285425507
 20
-13.740210058147696
 30
0.0
 11
44.95800344948533
 21
-12.388784067832264
 31
0.0
  0
LINE
  5
10E
330
17
100
AcDbEntity
  8
0
100
AcDbLine
 10
44.95800344948533
 20
-12.388784067832264
 30
0.0
 11
44.81596285425507
 21
-11.037358077516826
 31
0.0
  0
LINE
  5
10F
330
17
100
AcDbEntity
  8
0
100
AcDbLine
 10
44.81596285425507
 20
-11.037358077516826
 30
0.0
 11
44.39604892416224
 21
-9.74499588783956
 31
0.0
  0
LINE
  5
110
330
17
100
AcDbEntity
  8
0
100
AcDbLine
 10
44.39604892416224
 20
-9.74499588783956
 30
0.0
 11
43.71661391292249
 21
-8.568179927931185
 31
0.0
  0
LINE
  5
111
330
17
100
AcDbEntity
  8
0
100
AcDbLine
 10
43.71661391292249
 20
-8.568179927931185
 30
0.0
 11
42.80735239081791
 21
-7.558342702229199
 31
0.0
  0
LINE
  5
112
330
17
100
AcDbEntity
  8
0
100
AcDbLine
 10
42.80735239081791
 20
-7.558342702229199
 30
0.0
 11
41.70800344948533
 21
-6.759618943233411
 31
0.0
  0
LINE
  5
113
330
17
100
AcDbEntity
  8
0
100
AcDbLine
 10
41.70800344948533
 20
-6.759618943233411
 30
0.0
 11
40.46661391292249
 21
-6.206916711913765
 31
0.0
  0
LINE
  5
114
330
17
100
AcDbEntity
  8
0
100
AcDbLine
 10
40.46661391292249
 20
-6.206916711913765
 30
0.0
 11
39.13743846072508
 21
-5.924391747938484
 31
0.0
  0
LINE
  5
115
330
17
100
AcDbEntity
  8
0
100
AcDbLine
 10
39.13743846072508
 20
-5.924391747938484
 30
0.0
 11
37.778568438245586
 21
-5.924391747938488
 31
0.0
  0
LINE
  5
116
330
17
100
AcDbEntity
  8
0
100
AcDbLine
 10
37.778568438245586
 20
-5.924391747938488
 30
0.0
 11
36.449392986048174
 21
-6.206916711913763
 31
0.0
  0
LINE
  5
117
330
17
100
AcDbEntity
  8
0
100
AcDbLine
 10
36.449392986048174
 20
-6.206916711913763
 30
0.0
 11
35.20800344948533
 21
-6.759618943233409
 31
0.0
  0
LINE
  5
118
330
17
100
AcDbEntity
  8
0
100
AcDbLine
 10
35.20800344948533
 20
-6.759618943233409
 30
0.0
 11
34.10865450815275
 21
-7.558342702229199
 31
0.0
  0
LINE
  5
119
330
17
100
AcDbEntity
  8
0
100
AcDbLine
 10
34.10865450815275
 20
-7.558342702229199
 30
0.0
 11
33.199392986048174
 21
-8.568179927931183
 31
0.0
  0
LINE
  5
11A
330
17
100
AcDbEntity
  8
0
100
AcDbLine
 10
33.199392986048174
 20
-8.568179927931183
 30
0.0
 11
32.51995797480843
 21
-9.744995887839561
 31
0.0
  0
LINE
  5
11B
330
17
100
AcDbEntity
  8
0
100
AcDbLine
 10
32.51995797480843
 20
-9.744995887839561
 30
0.0
 11
32.100044044715595
 21
-11.037358077516826
 31
0.0
  0
LINE
  5
11C
330
17
100
AcDbEntity
  8
0
100
AcDbLine
 10
32.100044044715595
 20
-11.037358077516826
 30
0.0
 11
31.95800344948533
 21
-12.388784067832256
 31
0.0
  0
LINE
  5
11D
330
17
100
AcDbEntity
  8
0
100
AcDbLine
 10
31.95800344948533
 20
-12.388784067832256
 30
0.0
 11
32.100044044715595
 21
-13.740210058147696
 31
0.0
  0
LINE
  5
11E
330
17
100
AcDbEntity
  8
0
100
AcDbLine
 10
32.100044044715595
 20
-13.740210058147696
 30
0.0
 11
32.51995797480842
 21
-15.032572247824962
 31
0.0
  0
LINE
  5
11F
330
17
100
AcDbEntity
  8
0
100
AcDbLine
 10
32.51995797480842
 20
-15.032572247824962
 30
0.0
 11
33.199392986048174
 21
-16.209388207733337
 31
0.0
  0
LINE
  5
120
330
17
100
AcDbEntity
  8
0
100
AcDbLine
 10
33.199392986048174
 20
-16.209388207733337
 30
0.0
 11
34.10865450815275
 21
-17.219225433435323
 31
0.0
  0
LINE
  5
121
330
17
100
AcDbEntity
  8
0
100
AcDbLine
 10
34.10865450815275
 20
-17.219225433435323
 30
0.0
 11
35.20800344948533
 21
-18.017949192431114
 31
0.0
  0
LINE
  5
122
330
17
100
AcDbEntity
  8
0
100
AcDbLine
 10
49.935244785437504
 20
-11.509618943233408
 30
0.0
 11
34.935244785437504
 21
-37.49038105676657
 31
0.0
  0
LINE
  5
123
330
17
100
AcDbEntity
  8
0
100
AcDbLine
 10
34.935244785437504
 20
-37.49038105676657
 30
0.0
 11
36.23428289111416
 21
-38.24038105676657
 31
0.0
  0
LINE
  5
124
330
17
100
AcDbEntity
  8
0
100
AcDbLine
 10
36.23428289111416
 20
-38.24038105676657
 30
0.0
 11
51.23428289111416
 21
-12.259618943233408
 31
0.0
  0
LINE
  5
125
330
17
100
AcDbEntity
  8
0
100
AcDbLine
 10
51.23428289111416
 20
-12.259618943233408
 30
0.0
 11
49.935244785437504
 21
-11.509618943233408
 31
0.0
  0
LINE
  5
126
330
17
100
AcDbEntity
  8
0
100
AcDbLine
 10
17.320508075688785
 20
-29.999999999999993
 30
0.0
 11
26.000648945514776
 21
-35.011481667797895
 31
0.0
  0
LINE
  5
127
330
17
100
AcDbEntity
  8
0
100
AcDbLine
 10
26.000648945514776
 20
-35.011481667797895
 30
0.0
 11
25.58477264890518
 21
-37.87865556275557
 31
0.0
  0
LINE
  5
128
330
17
100
AcDbEntity
  8
0
100
AcDbLine
 10
25.58477264890518
 20
-37.87865556275557
 30
0.0
 11
26.008259536563983
 21
-40.7447152435699
 31
0.0
  0
LINE
  5
129
330
17
100
AcDbEntity
  8
0
100
AcDbLine
 10
26.008259536563983
 20
-40.7447152435699
 30
0.0
 11
27.235563646920838
 21
-43.36909400028731
 31
0.0
  0
LINE
  5
12A
330
17
100
AcDbEntity
  8
0
100
AcDbLine
 10
27.235563646920838
 20
-43.36909400028731
 30
0.0
 11
29.163669500599156
 21
-45.53151094783002
 31
0.0
  0
LINE
  5
12B
330
17
100
AcDbEntity
  8
0
100
AcDbLine
 10
29.163669500599156
 20
-45.53151094783002
 30
0.0
 11
31.630738848114234
 21
-47.050460608799725
 31
0.0
  0
LINE
  5
12C
330
17
100
AcDbEntity
  8
0
100
AcDbLine
 10
31.630738848114234
 20
-47.050460608799725
 30
0.0
 11
34.42969478868419
 21
-47.79844782844769
 31
0.0
  0
LINE
  5
12D
330
17
100
AcDbEntity
  8
0
100
AcDbLine
 10
34.42969478868419
 20
-47.79844782844769
 30
0.0
 11
37.32560305822675
 21
-47.71268925801023
 31
0.0
  0
LINE
  5
12E
330
17
100
AcDbEntity
  8
0
100
AcDbLine
 10
37.32560305822675
 20
-47.71268925801023
 30
0.0
 11
40.07539156393287
 21
-46.80038316250557
 31
0.0
  0
LINE
  5
12F
330
17
100
AcDbEntity
  8
0
100
AcDbLine
 10
40.07539156393287
 20
-46.80038316250557
 30
0.0
 11
42.44825297882535
 21
-45.13810522433671
 31
0.0
  0
LINE
  5
130
330
17
100
AcDbEntity
  8
0
100
AcDbLine
 10
42.44825297882535
 20
-45.13810522433671
 30
0.0
 11
44.24501787612023
 21
-42.865381056766566
 31
0.0
  0
LINE
  5
131
330
17
100
AcDbEntity
  8
0
100
AcDbLine
 10
34.64101615137754
 20
5.329070518200751e-15
 30
0.0
 11
43.32115702120354
 21
-5.0114816677979
 31
0.0
  0
LINE
  5
132
330
17
100
AcDbEntity
  8
0
100
AcDbLine
 10
43.32115702120354
 20
-5.0114816677979
 30
0.0
 11
45.596264302999664
 21
-3.217735282623355
 31
0.0
  0
LINE
  5
133
330
17
100
AcDbEntity
  8
0
100
AcDbLine
 10
45.596264302999664
 20
-3.217735282623355
 30
0.0
 11
48.29008823917658
 21
-2.1514558450983223
 31
0.0
  0
LINE
  5
134
330
17
100
AcDbEntity
  8
0
100
AcDbLine
 10
48.29008823917658
 20
-2.1514558450983223
 30
0.0
 11
51.17651896682452
 21
-1.9021430044777148
 31
0.0
  0
LINE
  5
135
330
17
100
AcDbEntity
  8
0
100
AcDbLine
 10
51.17651896682452
 20
-1.9021430044777148
 30
0.0
 11
54.01327990380966
 21
-2.490723181177259
 31
0.0
  0
LINE
  5
136
330
17
100
AcDbEntity
  8
0
100
AcDbLine
 10
54.01327990380966
 20
-2.490723181177259
 30
0.0
 11
56.56226357103672
 21
-3.867793078538366
 31
0.0
  0
LINE
  5
137
330
17
100
AcDbEntity
  8
0
100
AcDbLine
 10
56.56226357103672
 20
-3.867793078538366
 30
0.0
 11
58.609517475242924
 21
-5.917766417321328
 31
0.0
  0
LINE
  5
138
330
17
100
AcDbEntity
  8
0
100
AcDbLine
 10
58.609517475242924
 20
-5.917766417321328
 30
0.0
 11
59.98320250942314
 21
-8.468575830993341
 31
0.0
  0
LINE
  5
139
330
17
100
AcDbEntity
  8
0
100
AcDbLine
 10
59.98320250942314
 20
-8.468575830993341
 30
0.0
 11
60.56801650754177
 21
-11.306115579721624
 31
0.0
  0
LINE
  5
13A
330
17
100
AcDbEntity
  8
0
100
AcDbLine
 10
60.56801650754177
 20
-11.306115579721624
 30
0.0
 11
60.31487229238337
 21
-14.192212813762833
 31
0.0
  0
LINE
  5
13B
330
17
100
AcDbEntity
  8
0
100
AcDbLine
 10
60.31487229238337
 20
-14.192212813762833
 30
0.0
 11
59.245017876120215
 21
-16.884618943233406
 31
0.0
  0
LINE
  5
13C
330
17
100
AcDbEntity
  8
0
100
AcDbLine
 10
44.24501787612023
 20
-42.865381056766566
 30
0.0
 11
59.245017876120215
 21
-16.884618943233406
 31
0.0
  0
LINE
  5
13D
330
17
100
AcDbEntity
  8
0
100
AcDbLine
 10
-17.320508075688764
 20
-30.000000000000004
 30
0.0
 11
17.32050807568877
 21
-29.999999999999996
 31
0.0
  0
LINE
  5
13E
330
17
100
AcDbEntity
  8
0
100
AcDbLine
 10
-14.999999999999995
 20
-39.5
 30
0.0
 11
-14.857959404769732
 21
-40.851425990315434
 31
0.0
  0
LINE
  5
13F
330
17
100
AcDbEntity
  8
0
100
AcDbLine
 10
-14.857959404769732
 20
-40.851425990315434
 30
0.0
 11
-14.4380454746769
 21
-42.143788179992704
 31
0.0
  0
LINE
  5
140
330
17
100
AcDbEntity
  8
0
100
AcDbLine
 10
-14.4380454746769
 20
-42.143788179992704
 30
0.0
 11
-13.758610463437153
 21
-43.32060413990108
 31
0.0
  0
LINE
  5
141
330
17
100
AcDbEntity
  8
0
100
AcDbLine
 10
-13.758610463437153
 20
-43.32060413990108
 30
0.0
 11
-12.849348941332574
 21
-44.330441365603065
 31
0.0
  0
LINE
  5
142
330
17
100
AcDbEntity
  8
0
100
AcDbLine
 10
-12.849348941332574
 20
-44.330441365603065
 30
0.0
 11
-11.749999999999995
 21
-45.12916512459885
 31
0.0
  0
LINE
  5
143
330
17
100
AcDbEntity
  8
0
100
AcDbLine
 10
-11.749999999999995
 20
-45.12916512459885
 30
0.0
 11
-10.508610463437153
 21
-45.6818673559185
 31
0.0
  0
LINE
  5
144
330
17
100
AcDbEntity
  8
0
100
AcDbLine
 10
-10.508610463437153
 20
-45.6818673559185
 30
0.0
 11
-9.179435011239743
 21
-45.964392319893776
 31
0.0
  0
LINE
  5
145
330
17
100
AcDbEntity
  8
0
100
AcDbLine
 10
-9.179435011239743
 20
-45.964392319893776
 30
0.0
 11
-7.820564988760248
 21
-45.964392319893776
 31
0.0
  0
LINE
  5
146
330
17
100
AcDbEntity
  8
0
100
AcDbLine
 10
-7.820564988760248
 20
-45.964392319893776
 30
0.0
 11
-6.491389536562837
 21
-45.6818673559185
 31
0.0
  0
LINE
  5
147
330
17
100
AcDbEntity
  8
0
100
AcDbLine
 10
-6.491389536562837
 20
-45.6818673559185
 30
0.0
 11
-5.2499999999999964
 21
-45.129165124598856
 31
0.0
  0
LINE
  5
148
330
17
100
AcDbEntity
  8
0
100
AcDbLine
 10
-5.2499999999999964
 20
-45.129165124598856
 30
0.0
 11
-4.150651058667418
 21
-44.330441365603065
 31
0.0
  0
LINE
  5
149
330
17
100
AcDbEntity
  8
0
100
AcDbLine
 10
-4.150651058667418
 20
-44.330441365603065
 30
0.0
 11
-3.2413895365628367
 21
-43.32060413990108
 31
0.0
  0
LINE
  5
14A
330
17
100
AcDbEntity
  8
0
100
AcDbLine
 10
-3.2413895365628367
 20
-43.32060413990108
 30
0.0
 11
-2.56195452532309
 21
-42.143788179992704
 31
0.0
  0
LINE
  5
14B
330
17
100
AcDbEntity
  8
0
100
AcDbLine
 10
-2.56195452532309
 20
-42.143788179992704
 30
0.0
 11
-2.142040595230259
 21
-40.85142599031544
 31
0.0
  0
LINE
  5
14C
330
17
100
AcDbEntity
  8
0
100
AcDbLine
 10
-2.142040595230259
 20
-40.85142599031544
 30
0.0
 11
-1.9999999999999951
 21
-39.5
 31
0.0
  0
LINE
  5
14D
330
17
100
AcDbEntity
  8
0
100
AcDbLine
 10
-1.9999999999999951
 20
-39.5
 30
0.0
 11
-2.142040595230258
 21
-38.148574009684566
 31
0.0
  0
LINE
  5
14E
330
17
100
AcDbEntity
  8
0
100
AcDbLine
 10
-2.142040595230258
 20
-38.148574009684566
 30
0.0
 11
-2.561954525323088
 21
-36.8562118200073
 31
0.0
  0
LINE
  5
14F
330
17
100
AcDbEntity
  8
0
100
AcDbLine
 10
-2.561954525323088
 20
-36.8562118200073
 30
0.0
 11
-3.2413895365628376
 21
-35.67939586009893
 31
0.0
  0
LINE
  5
150
330
17
100
AcDbEntity
  8
0
100
AcDbLine
 10
-3.2413895365628376
 20
-35.67939586009893
 30
0.0
 11
-4.150651058667416
 21
-34.669558634396935
 31
0.0
  0
LINE
  5
151
330
17
100
AcDbEntity
  8
0
100
AcDbLine
 10
-4.150651058667416
 20
-34.669558634396935
 30
0.0
 11
-5.249999999999993
 21
-33.87083487540115
 31
0.0
  0
LINE
  5
152
330
17
100
AcDbEntity
  8
0
100
AcDbLine
 10
-5.249999999999993
 20
-33.87083487540115
 30
0.0
 11
-6.491389536562836
 21
-33.3181326440815
 31
0.0
  0
LINE
  5
153
330
17
100
AcDbEntity
  8
0
100
AcDbLine
 10
-6.491389536562836
 20
-33.3181326440815
 30
0.0
 11
-7.8205649887602435
 21
-33.035607680106224
 31
0.0
  0
LINE
  5
154
330
17
100
AcDbEntity
  8
0
100
AcDbLine
 10
-7.8205649887602435
 20
-33.035607680106224
 30
0.0
 11
-9.179435011239741
 21
-33.035607680106224
 31
0.0
  0
LINE
  5
155
330
17
100
AcDbEntity
  8
0
100
AcDbLine
 10
-9.179435011239741
 20
-33.035607680106224
 30
0.0
 11
-10.508610463437154
 21
-33.3181326440815
 31
0.0
  0
LINE
  5
156
330
17
100
AcDbEntity
  8
0
100
AcDbLine
 10
-10.508610463437154
 20
-33.3181326440815
 30
0.0
 11
-11.749999999999991
 21
-33.870834875401144
 31
0.0
  0
LINE
  5
157
330
17
100
AcDbEntity
  8
0
100
AcDbLine
 10
-11.749999999999991
 20
-33.870834875401144
 30
0.0
 11
-12.849348941332572
 21
-34.669558634396935
 31
0.0
  0
LINE
  5
158
330
17
100
AcDbEntity
  8
0
100
AcDbLine
 10
-12.849348941332572
 20
-34.669558634396935
 30
0.0
 11
-13.758610463437154
 21
-35.67939586009892
 31
0.0
  0
LINE
  5
159
330
17
100
AcDbEntity
  8
0
100
AcDbLine
 10
-13.758610463437154
 20
-35.67939586009892
 30
0.0
 11
-14.4380454746769
 21
-36.856211820007296
 31
0.0
  0
LINE
  5
15A
330
17
100
AcDbEntity
  8
0
100
AcDbLine
 10
-14.4380454746769
 20
-36.856211820007296
 30
0.0
 11
-14.857959404769732
 21
-38.14857400968456
 31
0.0
  0
LINE
  5
15B
330
17
100
AcDbEntity
  8
0
100
AcDbLine
 10
-14.857959404769732
 20
-38.14857400968456
 30
0.0
 11
-14.999999999999995
 21
-39.5
 31
0.0
  0
LINE
  5
15C
330
17
100
AcDbEntity
  8
0
100
AcDbLine
 10
2.000000000000005
 20
-39.5
 30
0.0
 11
2.142040595230268
 21
-40.851425990315434
 31
0.0
  0
LINE
  5
15D
330
17
100
AcDbEntity
  8
0
100
AcDbLine
 10
2.142040595230268
 20
-40.851425990315434
 30
0.0
 11
2.5619545253230998
 21
-42.143788179992704
 31
0.0
  0
LINE
  5
15E
330
17
100
AcDbEntity
  8
0
100
AcDbLine
 10
2.5619545253230998
 20
-42.143788179992704
 30
0.0
 11
3.2413895365628473
 21
-43.32060413990108
 31
0.0
  0
LINE
  5
15F
330
17
100
AcDbEntity
  8
0
100
AcDbLine
 10
3.2413895365628473
 20
-43.32060413990108
 30
0.0
 11
4.150651058667426
 21
-44.330441365603065
 31
0.0
  0
LINE
  5
160
330
17
100
AcDbEntity
  8
0
100
AcDbLine
 10
4.150651058667426
 20
-44.330441365603065
 30
0.0
 11
5.250000000000004
 21
-45.12916512459885
 31
0.0
  0
LINE
  5
161
330
17
100
AcDbEntity
  8
0
100
AcDbLine
 10
5.250000000000004
 20
-45.12916512459885
 30
0.0
 11
6.491389536562847
 21
-45.6818673559185
 31
0.0
  0
LINE
  5
162
330
17
100
AcDbEntity
  8
0
100
AcDbLine
 10
6.491389536562847
 20
-45.6818673559185
 30
0.0
 11
7.820564988760257
 21
-45.964392319893776
 31
0.0
  0
LINE
  5
163
330
17
100
AcDbEntity
  8
0
100
AcDbLine
 10
7.820564988760257
 20
-45.964392319893776
 30
0.0
 11
9.179435011239752
 21
-45.964392319893776
 31
0.0
  0
LINE
  5
164
330
17
100
AcDbEntity
  8
0
100
AcDbLine
 10
9.179435011239752
 20
-45.964392319893776
 30
0.0
 11
10.508610463437163
 21
-45.6818673559185
 31
0.0
  0
LINE
  5
165
330
17
100
AcDbEntity
  8
0
100
AcDbLine
 10
10.508610463437163
 20
-45.6818673559185
 30
0.0
 11
11.750000000000004
 21
-45.129165124598856
 31
0.0
  0
LINE
  5
166
330
17
100
AcDbEntity
  8
0
100
AcDbLine
 10
11.750000000000004
 20
-45.129165124598856
 30
0.0
 11
12.84934894133258
 21
-44.330441365603065
 31
0.0
  0
LINE
  5
167
330
17
100
AcDbEntity
  8
0
100
AcDbLine
 10
12.84934894133258
 20
-44.330441365603065
 30
0.0
 11
13.758610463437163
 21
-43.32060413990108
 31
0.0
  0
LINE
  5
168
330
17
100
AcDbEntity
  8
0
100
AcDbLine
 10
13.758610463437163
 20
-43.32060413990108
 30
0.0
 11
14.43804547467691
 21
-42.143788179992704
 31
0.0
  0
LINE
  5
169
330
17
100
AcDbEntity
  8
0
100
AcDbLine
 10
14.43804547467691
 20
-42.143788179992704
 30
0.0
 11
14.857959404769742
 21
-40.85142599031544
 31
0.0
  0
LINE
  5
16A
330
17
100
AcDbEntity
  8
0
100
AcDbLine
 10
14.857959404769742
 20
-40.85142599031544
 30
0.0
 11
15.000000000000005
 21
-39.5
 31
0.0
  0
LINE
  5
16B
330
17
100
AcDbEntity
  8
0
100
AcDbLine
 10
15.000000000000005
 20
-39.5
 30
0.0
 11
14.857959404769742
 21
-38.148574009684566
 31
0.0
  0
LINE
  5
16C
330
17
100
AcDbEntity
  8
0
100
AcDbLine
 10
14.857959404769742
 20
-38.148574009684566
 30
0.0
 11
14.438045474676914
 21
-36.8562118200073
 31
0.0
  0
LINE
  5
16D
330
17
100
AcDbEntity
  8
0
100
AcDbLine
 10
14.438045474676914
 20
-36.8562118200073
 30
0.0
 11
13.758610463437162
 21
-35.67939586009893
 31
0.0
  0
LINE
  5
16E
330
17
100
AcDbEntity
  8
0
100
AcDbLine
 10
13.758610463437162
 20
-35.67939586009893
 30
0.0
 11
12.849348941332583
 21
-34.669558634396935
 31
0.0
  0
LINE
  5
16F
330
17
100
AcDbEntity
  8
0
100
AcDbLine
 10
12.849348941332583
 20
-34.669558634396935
 30
0.0
 11
11.750000000000007
 21
-33.87083487540115
 31
0.0
  0
LINE
  5
170
330
17
100
AcDbEntity
  8
0
100
AcDbLine
 10
11.750000000000007
 20
-33.87083487540115
 30
0.0
 11
10.508610463437163
 21
-33.3181326440815
 31
0.0
  0
LINE
  5
171
330
17
100
AcDbEntity
  8
0
100
AcDbLine
 10
10.508610463437163
 20
-33.3181326440815
 30
0.0
 11
9.179435011239756
 21
-33.035607680106224
 31
0.0
  0
LINE
  5
172
330
17
100
AcDbEntity
  8
0
100
AcDbLine
 10
9.179435011239756
 20
-33.035607680106224
 30
0.0
 11
7.8205649887602595
 21
-33.035607680106224
 31
0.0
  0
LINE
  5
173
330
17
100
AcDbEntity
  8
0
100
AcDbLine
 10
7.8205649887602595
 20
-33.035607680106224
 30
0.0
 11
6.491389536562847
 21
-33.3181326440815
 31
0.0
  0
LINE
  5
174
330
17
100
AcDbEntity
  8
0
100
AcDbLine
 10
6.491389536562847
 20
-33.3181326440815
 30
0.0
 11
5.25000000000001
 21
-33.870834875401144
 31
0.0
  0
LINE
  5
175
330
17
100
AcDbEntity
  8
0
100
AcDbLine
 10
5.25000000000001
 20
-33.870834875401144
 30
0.0
 11
4.150651058667429
 21
-34.669558634396935
 31
0.0
  0
LINE
  5
176
330
17
100
AcDbEntity
  8
0
100
AcDbLine
 10
4.150651058667429
 20
-34.669558634396935
 30
0.0
 11
3.2413895365628465
 21
-35.67939586009892
 31
0.0
  0
LINE
  5
177
330
17
100
AcDbEntity
  8
0
100
AcDbLine
 10
3.2413895365628465
 20
-35.67939586009892
 30
0.0
 11
2.5619545253231006
 21
-36.856211820007296
 31
0.0
  0
LINE
  5
178
330
17
100
AcDbEntity
  8
0
100
AcDbLine
 10
2.5619545253231006
 20
-36.856211820007296
 30
0.0
 11
2.142040595230269
 21
-38.14857400968456
 31
0.0
  0
LINE
  5
179
330
17
100
AcDbEntity
  8
0
100
AcDbLine
 10
2.142040595230269
 20
-38.14857400968456
 30
0.0
 11
2.000000000000005
 21
-39.5
 31
0.0
  0
LINE
  5
17A
330
17
100
AcDbEntity
  8
0
100
AcDbLine
 10
15.000000000000005
 20
-49.0
 30
0.0
 11
-14.999999999999995
 21
-49.0
 31
0.0
  0
LINE
  5
17B
330
17
100
AcDbEntity
  8
0
100
AcDbLine
 10
-14.999999999999995
 20
-49.0
 30
0.0
 11
-14.999999999999995
 21
-50.5
 31
0.0
  0
LINE
  5
17C
330
17
100
AcDbEntity
  8
0
100
AcDbLine
 10
-14.999999999999995
 20
-50.5
 30
0.0
 11
15.000000000000005
 21
-50.5
 31
0.0
  0
LINE
  5
17D
330
17
100
AcDbEntity
  8
0
100
AcDbLine
 10
15.000000000000005
 20
-50.5
 30
0.0
 11
15.000000000000005
 21
-49.0
 31
0.0
  0
LINE
  5
17E
330
17
100
AcDbEntity
  8
0
100
AcDbLine
 10
-17.320508075688764
 20
-30.000000000000004
 30
0.0
 11
-17.320508075688764
 21
-40.02296333559582
 31
0.0
  0
LINE
  5
17F
330
17
100
AcDbEntity
  8
0
100
AcDbLine
 10
-17.320508075688764
 20
-40.02296333559582
 30
0.0
 11
-20.01149165409449
 21
-41.09639084537895
 31
0.0
  0
LINE
  5
180
330
17
100
AcDbEntity
  8
0
100
AcDbLine
 10
-20.01149165409449
 20
-41.09639084537895
 30
0.0
 11
-22.28182870261261
 21
-42.89617108866824
 31
0.0
  0
LINE
  5
181
330
17
100
AcDbEntity
  8
0
100
AcDbLine
 10
-22.28182870261261
 20
-42.89617108866824
 30
0.0
 11
-23.94095531990368
 21
-45.27123700476505
 31
0.0
  0
LINE
  5
182
330
17
100
AcDbEntity
  8
0
100
AcDbLine
 10
-23.94095531990368
 20
-45.27123700476505
 30
0.0
 11
-24.849610403210512
 21
-48.0222341290073
 31
0.0
  0
LINE
  5
183
330
17
100
AcDbEntity
  8
0
100
AcDbLine
 10
-24.849610403210512
 20
-48.0222341290073
 30
0.0
 11
-24.931524722922497
 21
-50.918253687338115
 31
0.0
  0
LINE
  5
184
330
17
100
AcDbEntity
  8
0
100
AcDbLine
 10
-24.931524722922497
 20
-50.918253687338115
 30
0.0
 11
-24.179822686558747
 21
-53.71621424576904
 31
0.0
  0
LINE
  5
185
330
17
100
AcDbEntity
  8
0
100
AcDbLine
 10
-24.179822686558747
 20
-53.71621424576904
 30
0.0
 11
-22.657599451196397
 21
-56.1812650890036
 31
0.0
  0
LINE
  5
186
330
17
100
AcDbEntity
  8
0
100
AcDbLine
 10
-22.657599451196397
 20
-56.1812650890036
 30
0.0
 11
-20.49262494360891
 21
-58.106498742227224
 31
0.0
  0
LINE
  5
187
330
17
100
AcDbEntity
  8
0
100
AcDbLine
 10
-20.49262494360891
 20
-58.106498742227224
 30
0.0
 11
-17.86661931355802
 21
-59.33031803809958
 31
0.0
  0
LINE
  5
188
330
17
100
AcDbEntity
  8
0
100
AcDbLine
 10
-17.86661931355802
 20
-59.33031803809958
 30
0.0
 11
-14.999999999999993
 21
-59.75
 31
0.0
  0
LINE
  5
189
330
17
100
AcDbEntity
  8
0
100
AcDbLine
 10
17.32050807568877
 20
-29.999999999999996
 30
0.0
 11
17.32050807568877
 21
-40.02296333559582
 31
0.0
  0
LINE
  5
18A
330
17
100
AcDbEntity
  8
0
100
AcDbLine
 10
17.32050807568877
 20
-40.02296333559582
 30
0.0
 11
20.011491654094495
 21
-41.09639084537895
 31
0.0
  0
LINE
  5
18B
330
17
100
AcDbEntity
  8
0
100
AcDbLine
 10
20.011491654094495
 20
-41.09639084537895
 30
0.0
 11
22.281828702612618
 21
-42.89617108866824
 31
0.0
  0
LINE
  5
18C
330
17
100
AcDbEntity
  8
0
100
AcDbLine
 10
22.281828702612618
 20
-42.89617108866824
 30
0.0
 11
23.940955319903694
 21
-45.27123700476505
 31
0.0
  0
LINE
  5
18D
330
17
100
AcDbEntity
  8
0
100
AcDbLine
 10
23.940955319903694
 20
-45.27123700476505
 30
0.0
 11
24.849610403210526
 21
-48.0222341290073
 31
0.0
  0
LINE
  5
18E
330
17
100
AcDbEntity
  8
0
100
AcDbLine
 10
24.849610403210526
 20
-48.0222341290073
 30
0.0
 11
24.93152472292251
 21
-50.918253687338115
 31
0.0
  0
LINE
  5
18F
330
17
100
AcDbEntity
  8
0
100
AcDbLine
 10
24.93152472292251
 20
-50.918253687338115
 30
0.0
 11
24.17982268655876
 21
-53.71621424576904
 31
0.0
  0
LINE
  5
190
330
17
100
AcDbEntity
  8
0
100
AcDbLine
 10
24.17982268655876
 20
-53.71621424576904
 30
0.0
 11
22.65759945119641
 21
-56.1812650890036
 31
0.0
  0
LINE
  5
191
330
17
100
AcDbEntity
  8
0
100
AcDbLine
 10
22.65759945119641
 20
-56.1812650890036
 30
0.0
 11
20.492624943608924
 21
-58.106498742227224
 31
0.0
  0
LINE
  5
192
330
17
100
AcDbEntity
  8
0
100
AcDbLine
 10
20.492624943608924
 20
-58.106498742227224
 30
0.0
 11
17.866619313558033
 21
-59.33031803809958
 31
0.0
  0
LINE
  5
193
330
17
100
AcDbEntity
  8
0
100
AcDbLine
 10
17.866619313558033
 20
-59.33031803809958
 30
0.0
 11
15.000000000000007
 21
-59.75
 31
0.0
  0
LINE
  5
194
330
17
100
AcDbEntity
  8
0
100
AcDbLine
 10
-14.999999999999993
 20
-59.75
 30
0.0
 11
15.000000000000007
 21
-59.75
 31
0.0
  0
LINE
  5
195
330
17
100
AcDbEntity
  8
0
100
AcDbLine
 10
-34.64101615137754
 20
-2.3092638912203256e-14
 30
0.0
 11
-17.320508075688764
 21
-30.000000000000007
 31
0.0
  0
LINE
  5
196
330
17
100
AcDbEntity
  8
0
100
AcDbLine
 10
-41.708003449485325
 20
-6.759618943233441
 30
0.0
 11
-42.8073523908179
 21
-7.558342702229229
 31
0.0
  0
LINE
  5
197
330
17
100
AcDbEntity
  8
0
100
AcDbLine
 10
-42.8073523908179
 20
-7.558342702229229
 30
0.0
 11
-43.716613912922476
 21
-8.56817992793122
 31
0.0
  0
LINE
  5
198
330
17
100
AcDbEntity
  8
0
100
AcDbLine
 10
-43.716613912922476
 20
-8.56817992793122
 30
0.0
 11
-44.39604892416223
 21
-9.744995887839593
 31
0.0
  0
LINE
  5
199
330
17
100
AcDbEntity
  8
0
100
AcDbLine
 10
-44.39604892416223
 20
-9.744995887839593
 30
0.0
 11
-44.81596285425506
 21
-11.037358077516862
 31
0.0
  0
LINE
  5
19A
330
17
100
AcDbEntity
  8
0
100
AcDbLine
 10
-44.81596285425506
 20
-11.037358077516862
 30
0.0
 11
-44.95800344948532
 21
-12.388784067832296
 31
0.0
  0
LINE
  5
19B
330
17
100
AcDbEntity
  8
0
100
AcDbLine
 10
-44.95800344948532
 20
-12.388784067832296
 30
0.0
 11
-44.815962854255055
 21
-13.740210058147731
 31
0.0
  0
LINE
  5
19C
330
17
100
AcDbEntity
  8
0
100
AcDbLine
 10
-44.815962854255055
 20
-13.740210058147731
 30
0.0
 11
-44.39604892416222
 21
-15.032572247824994
 31
0.0
  0
LINE
  5
19D
330
17
100
AcDbEntity
  8
0
100
AcDbLine
 10
-44.39604892416222
 20
-15.032572247824994
 30
0.0
 11
-43.71661391292247
 21
-16.20938820773337
 31
0.0
  0
LINE
  5
19E
330
17
100
AcDbEntity
  8
0
100
AcDbLine
 10
-43.71661391292247
 20
-16.20938820773337
 30
0.0
 11
-42.8073523908179
 21
-17.219225433435355
 31
0.0
  0
LINE
  5
19F
330
17
100
AcDbEntity
  8
0
100
AcDbLine
 10
-42.8073523908179
 20
-17.219225433435355
 30
0.0
 11
-41.70800344948532
 21
-18.017949192431146
 31
0.0
  0
LINE
  5
1A0
330
17
100
AcDbEntity
  8
0
100
AcDbLine
 10
-41.70800344948532
 20
-18.017949192431146
 30
0.0
 11
-40.466613912922476
 21
-18.570651423750792
 31
0.0
  0
LINE
  5
1A1
330
17
100
AcDbEntity
  8
0
100
AcDbLine
 10
-40.466613912922476
 20
-18.570651423750792
 30
0.0
 11
-39.13743846072507
 21
-18.85317638772607
 31
0.0
  0
LINE
  5
1A2
330
17
100
AcDbEntity
  8
0
100
AcDbLine
 10
-39.13743846072507
 20
-18.85317638772607
 30
0.0
 11
-37.77856843824557
 21
-18.853176387726066
 31
0.0
  0
LINE
  5
1A3
330
17
100
AcDbEntity
  8
0
100
AcDbLine
 10
-37.77856843824557
 20
-18.853176387726066
 30
0.0
 11
-36.44939298604817
 21
-18.57065142375079
 31
0.0
  0
LINE
  5
1A4
330
17
100
AcDbEntity
  8
0
100
AcDbLine
 10
-36.44939298604817
 20
-18.57065142375079
 30
0.0
 11
-35.20800344948532
 21
-18.01794919243114
 31
0.0
  0
LINE
  5
1A5
330
17
100
AcDbEntity
  8
0
100
AcDbLine
 10
-35.20800344948532
 20
-18.01794919243114
 30
0.0
 11
-34.108654508152746
 21
-17.219225433435355
 31
0.0
  0
LINE
  5
1A6
330
17
100
AcDbEntity
  8
0
100
AcDbLine
 10
-34.108654508152746
 20
-17.219225433435355
 30
0.0
 11
-33.19939298604816
 21
-16.20938820773337
 31
0.0
  0
LINE
  5
1A7
330
17
100
AcDbEntity
  8
0
100
AcDbLine
 10
-33.19939298604816
 20
-16.20938820773337
 30
0.0
 11
-32.51995797480841
 21
-15.032572247824989
 31
0.0
  0
LINE
  5
1A8
330
17
100
AcDbEntity
  8
0
100
AcDbLine
 10
-32.51995797480841
 20
-15.032572247824989
 30
0.0
 11
-32.10004404471558
 21
-13.740210058147722
 31
0.0
  0
LINE
  5
1A9
330
17
100
AcDbEntity
  8
0
100
AcDbLine
 10
-32.10004404471558
 20
-13.740210058147722
 30
0.0
 11
-31.958003449485318
 21
-12.38878406783229
 31
0.0
  0
LINE
  5
1AA
330
17
100
AcDbEntity
  8
0
100
AcDbLine
 10
-31.958003449485318
 20
-12.38878406783229
 30
0.0
 11
-32.10004404471558
 21
-11.037358077516853
 31
0.0
  0
LINE
  5
1AB
330
17
100
AcDbEntity
  8
0
100
AcDbLine
 10
-32.10004404471558
 20
-11.037358077516853
 30
0.0
 11
-32.51995797480841
 21
-9.74499588783959
 31
0.0
  0
LINE
  5
1AC
330
17
100
AcDbEntity
  8
0
100
AcDbLine
 10
-32.51995797480841
 20
-9.74499588783959
 30
0.0
 11
-33.19939298604817
 21
-8.568179927931215
 31
0.0
  0
LINE
  5
1AD
330
17
100
AcDbEntity
  8
0
100
AcDbLine
 10
-33.19939298604817
 20
-8.568179927931215
 30
0.0
 11
-34.108654508152746
 21
-7.5583427022292256
 31
0.0
  0
LINE
  5
1AE
330
17
100
AcDbEntity
  8
0
100
AcDbLine
 10
-34.108654508152746
 20
-7.5583427022292256
 30
0.0
 11
-35.20800344948532
 21
-6.7596189432334395
 31
0.0
  0
LINE
  5
1AF
330
17
100
AcDbEntity
  8
0
100
AcDbLine
 10
-35.20800344948532
 20
-6.7596189432334395
 30
0.0
 11
-36.44939298604816
 21
-6.206916711913793
 31
0.0
  0
LINE
  5
1B0
330
17
100
AcDbEntity
  8
0
100
AcDbLine
 10
-36.44939298604816
 20
-6.206916711913793
 30
0.0
 11
-37.77856843824557
 21
-5.924391747938511
 31
0.0
  0
LINE
  5
1B1
330
17
100
AcDbEntity
  8
0
100
AcDbLine
 10
-37.77856843824557
 20
-5.924391747938511
 30
0.0
 11
-39.137438460725065
 21
-5.924391747938516
 31
0.0
  0
LINE
  5
1B2
330
17
100
AcDbEntity
  8
0
100
AcDbLine
 10
-39.137438460725065
 20
-5.924391747938516
 30
0.0
 11
-40.466613912922476
 21
-6.206916711913792
 31
0.0
  0
LINE
  5
1B3
330
17
100
AcDbEntity
  8
0
100
AcDbLine
 10
-40.466613912922476
 20
-6.206916711913792
 30
0.0
 11
-41.708003449485325
 21
-6.759618943233441
 31
0.0
  0
LINE
  5
1B4
330
17
100
AcDbEntity
  8
0
100
AcDbLine
 10
-33.20800344948532
 20
-21.482050807568896
 30
0.0
 11
-34.30735239081789
 21
-22.28077456656468
 31
0.0
  0
LINE
  5
1B5
330
17
100
AcDbEntity
  8
0
100
AcDbLine
 10
-34.30735239081789
 20
-22.28077456656468
 30
0.0
 11
-35.21661391292247
 21
-23.290611792266674
 31
0.0
  0
LINE
  5
1B6
330
17
100
AcDbEntity
  8
0
100
AcDbLine
 10
-35.21661391292247
 20
-23.290611792266674
 30
0.0
 11
-35.89604892416222
 21
-24.467427752175045
 31
0.0
  0
LINE
  5
1B7
330
17
100
AcDbEntity
  8
0
100
AcDbLine
 10
-35.89604892416222
 20
-24.467427752175045
 30
0.0
 11
-36.315962854255055
 21
-25.759789941852315
 31
0.0
  0
LINE
  5
1B8
330
17
100
AcDbEntity
  8
0
100
AcDbLine
 10
-36.315962854255055
 20
-25.759789941852315
 30
0.0
 11
-36.45800344948531
 21
-27.111215932167745
 31
0.0
  0
LINE
  5
1B9
330
17
100
AcDbEntity
  8
0
100
AcDbLine
 10
-36.45800344948531
 20
-27.111215932167745
 30
0.0
 11
-36.31596285425505
 21
-28.462641922483186
 31
0.0
  0
LINE
  5
1BA
330
17
100
AcDbEntity
  8
0
100
AcDbLine
 10
-36.31596285425505
 20
-28.462641922483186
 30
0.0
 11
-35.896048924162216
 21
-29.75500411216045
 31
0.0
  0
LINE
  5
1BB
330
17
100
AcDbEntity
  8
0
100
AcDbLine
 10
-35.896048924162216
 20
-29.75500411216045
 30
0.0
 11
-35.21661391292246
 21
-30.93182007206882
 31
0.0
  0
LINE
  5
1BC
330
17
100
AcDbEntity
  8
0
100
AcDbLine
 10
-35.21661391292246
 20
-30.93182007206882
 30
0.0
 11
-34.30735239081789
 21
-31.94165729777081
 31
0.0
  0
LINE
  5
1BD
330
17
100
AcDbEntity
  8
0
100
AcDbLine
 10
-34.30735239081789
 20
-31.94165729777081
 30
0.0
 11
-33.20800344948531
 21
-32.7403810567666
 31
0.0
  0
LINE
  5
1BE
330
17
100
AcDbEntity
  8
0
100
AcDbLine
 10
-33.20800344948531
 20
-32.7403810567666
 30
0.0
 11
-31.966613912922472
 21
-33.293083288086244
 31
0.0
  0
LINE
  5
1BF
330
17
100
AcDbEntity
  8
0
100
AcDbLine
 10
-31.966613912922472
 20
-33.293083288086244
 30
0.0
 11
-30.63743846072506
 21
-33.57560825206152
 31
0.0
  0
LINE
  5
1C0
330
17
100
AcDbEntity
  8
0
100
AcDbLine
 10
-30.63743846072506
 20
-33.57560825206152
 30
0.0
 11
-29.27856843824556
 21
-33.57560825206152
 31
0.0
  0
LINE
  5
1C1
330
17
100
AcDbEntity
  8
0
100
AcDbLine
 10
-29.27856843824556
 20
-33.57560825206152
 30
0.0
 11
-27.949392986048156
 21
-33.293083288086244
 31
0.0
  0
LINE
  5
1C2
330
17
100
AcDbEntity
  8
0
100
AcDbLine
 10
-27.949392986048156
 20
-33.293083288086244
 30
0.0
 11
-26.70800344948531
 21
-32.740381056766594
 31
0.0
  0
LINE
  5
1C3
330
17
100
AcDbEntity
  8
0
100
AcDbLine
 10
-26.70800344948531
 20
-32.740381056766594
 30
0.0
 11
-25.608654508152735
 21
-31.941657297770806
 31
0.0
  0
LINE
  5
1C4
330
17
100
AcDbEntity
  8
0
100
AcDbLine
 10
-25.608654508152735
 20
-31.941657297770806
 30
0.0
 11
-24.699392986048156
 21
-30.931820072068824
 31
0.0
  0
LINE
  5
1C5
330
17
100
AcDbEntity
  8
0
100
AcDbLine
 10
-24.699392986048156
 20
-30.931820072068824
 30
0.0
 11
-24.019957974808406
 21
-29.755004112160442
 31
0.0
  0
LINE
  5
1C6
330
17
100
AcDbEntity
  8
0
100
AcDbLine
 10
-24.019957974808406
 20
-29.755004112160442
 30
0.0
 11
-23.600044044715574
 21
-28.462641922483172
 31
0.0
  0
LINE
  5
1C7
330
17
100
AcDbEntity
  8
0
100
AcDbLine
 10
-23.600044044715574
 20
-28.462641922483172
 30
0.0
 11
-23.45800344948531
 21
-27.111215932167745
 31
0.0
  0
LINE
  5
1C8
330
17
100
AcDbEntity
  8
0
100
AcDbLine
 10
-23.45800344948531
 20
-27.111215932167745
 30
0.0
 11
-23.600044044715574
 21
-25.759789941852304
 31
0.0
  0
LINE
  5
1C9
330
17
100
AcDbEntity
  8
0
100
AcDbLine
 10
-23.600044044715574
 20
-25.759789941852304
 30
0.0
 11
-24.019957974808406
 21
-24.46742775217504
 31
0.0
  0
LINE
  5
1CA
330
17
100
AcDbEntity
  8
0
100
AcDbLine
 10
-24.019957974808406
 20
-24.46742775217504
 30
0.0
 11
-24.699392986048156
 21
-23.290611792266667
 31
0.0
  0
LINE
  5
1CB
330
17
100
AcDbEntity
  8
0
100
AcDbLine
 10
-24.699392986048156
 20
-23.290611792266667
 30
0.0
 11
-25.608654508152735
 21
-22.28077456656468
 31
0.0
  0
LINE
  5
1CC
330
17
100
AcDbEntity
  8
0
100
AcDbLine
 10
-25.608654508152735
 20
-22.28077456656468
 30
0.0
 11
-26.70800344948531
 21
-21.482050807568893
 31
0.0
  0
LINE
  5
1CD
330
17
100
AcDbEntity
  8
0
100
AcDbLine
 10
-26.70800344948531
 20
-21.482050807568893
 30
0.0
 11
-27.949392986048153
 21
-20.929348576249247
 31
0.0
  0
LINE
  5
1CE
330
17
100
AcDbEntity
  8
0
100
AcDbLine
 10
-27.949392986048153
 20
-20.929348576249247
 30
0.0
 11
-29.278568438245568
 21
-20.646823612273963
 31
0.0
  0
LINE
  5
1CF
330
17
100
AcDbEntity
  8
0
100
AcDbLine
 10
-29.278568438245568
 20
-20.646823612273963
 30
0.0
 11
-30.63743846072506
 21
-20.64682361227397
 31
0.0
  0
LINE
  5
1D0
330
17
100
AcDbEntity
  8
0
100
AcDbLine
 10
-30.63743846072506
 20
-20.64682361227397
 30
0.0
 11
-31.966613912922472
 21
-20.929348576249247
 31
0.0
  0
LINE
  5
1D1
330
17
100
AcDbEntity
  8
0
100
AcDbLine
 10
-31.966613912922472
 20
-20.929348576249247
 30
0.0
 11
-33.20800344948532
 21
-21.482050807568896
 31
0.0
  0
LINE
  5
1D2
330
17
100
AcDbEntity
  8
0
100
AcDbLine
 10
-34.935244785437476
 20
-37.490381056766594
 30
0.0
 11
-49.93524478543749
 21
-11.509618943233445
 31
0.0
  0
LINE
  5
1D3
330
17
100
AcDbEntity
  8
0
100
AcDbLine
 10
-49.93524478543749
 20
-11.509618943233445
 30
0.0
 11
-51.23428289111415
 21
-12.259618943233445
 31
0.0
  0
LINE
  5
1D4
330
17
100
AcDbEntity
  8
0
100
AcDbLine
 10
-51.23428289111415
 20
-12.259618943233445
 30
0.0
 11
-36.234282891114134
 21
-38.240381056766594
 31
0.0
  0
LINE
  5
1D5
330
17
100
AcDbEntity
  8
0
100
AcDbLine
 10
-36.234282891114134
 20
-38.240381056766594
 30
0.0
 11
-34.935244785437476
 21
-37.490381056766594
 31
0.0
  0
LINE
  5
1D6
330
17
100
AcDbEntity
  8
0
100
AcDbLine
 10
-34.64101615137754
 20
-2.3092638912203256e-14
 30
0.0
 11
-43.32115702120353
 21
-5.011481667797936
 31
0.0
  0
LINE
  5
1D7
330
17
100
AcDbEntity
  8
0
100
AcDbLine
 10
-43.32115702120353
 20
-5.011481667797936
 30
0.0
 11
-45.59626430299966
 21
-3.2177352826233907
 31
0.0
  0
LINE
  5
1D8
330
17
100
AcDbEntity
  8
0
100
AcDbLine
 10
-45.59626430299966
 20
-3.2177352826233907
 30
0.0
 11
-48.29008823917658
 21
-2.1514558450983614
 31
0.0
  0
LINE
  5
1D9
330
17
100
AcDbEntity
  8
0
100
AcDbLine
 10
-48.29008823917658
 20
-2.1514558450983614
 30
0.0
 11
-51.17651896682451
 21
-1.9021430044777574
 31
0.0
  0
LINE
  5
1DA
330
17
100
AcDbEntity
  8
0
100
AcDbLine
 10
-51.17651896682451
 20
-1.9021430044777574
 30
0.0
 11
-54.01327990380966
 21
-2.4907231811773016
 31
0.0
  0
LINE
  5
1DB
330
17
100
AcDbEntity
  8
0
100
AcDbLine
 10
-54.01327990380966
 20
-2.4907231811773016
 30
0.0
 11
-56.56226357103672
 21
-3.8677930785384085
 31
0.0
  0
LINE
  5
1DC
330
17
100
AcDbEntity
  8
0
100
AcDbLine
 10
-56.56226357103672
 20
-3.8677930785384085
 30
0.0
 11
-58.609517475242924
 21
-5.917766417321374
 31
0.0
  0
LINE
  5
1DD
330
17
100
AcDbEntity
  8
0
100
AcDbLine
 10
-58.609517475242924
 20
-5.917766417321374
 30
0.0
 11
-59.98320250942312
 21
-8.468575830993391
 31
0.0
  0
LINE
  5
1DE
330
17
100
AcDbEntity
  8
0
100
AcDbLine
 10
-59.98320250942312
 20
-8.468575830993391
 30
0.0
 11
-60.568016507541756
 21
-11.30611557972167
 31
0.0
  0
LINE
  5
1DF
330
17
100
AcDbEntity
  8
0
100
AcDbLine
 10
-60.568016507541756
 20
-11.30611557972167
 30
0.0
 11
-60.314872292383356
 21
-14.192212813762879
 31
0.0
  0
LINE
  5
1E0
330
17
100
AcDbEntity
  8
0
100
AcDbLine
 10
-60.314872292383356
 20
-14.192212813762879
 30
0.0
 11
-59.2450178761202
 21
-16.88461894323345
 31
0.0
  0
LINE
  5
1E1
330
17
100
AcDbEntity
  8
0
100
AcDbLine
 10
-17.320508075688764
 20
-30.000000000000007
 30
0.0
 11
-26.000648945514754
 21
-35.011481667797916
 31
0.0
  0
LINE
  5
1E2
330
17
100
AcDbEntity
  8
0
100
AcDbLine
 10
-26.000648945514754
 20
-35.011481667797916
 30
0.0
 11
-25.584772648905144
 21
-37.8786555627556
 31
0.0
  0
LINE
  5
1E3
330
17
100
AcDbEntity
  8
0
100
AcDbLine
 10
-25.584772648905144
 20
-37.8786555627556
 30
0.0
 11
-26.008259536563944
 21
-40.744715243569914
 31
0.0
  0
LINE
  5
1E4
330
17
100
AcDbEntity
  8
0
100
AcDbLine
 10
-26.008259536563944
 20
-40.744715243569914
 30
0.0
 11
-27.235563646920802
 21
-43.36909400028733
 31
0.0
  0
LINE
  5
1E5
330
17
100
AcDbEntity
  8
0
100
AcDbLine
 10
-27.235563646920802
 20
-43.36909400028733
 30
0.0
 11
-29.163669500599116
 21
-45.53151094783004
 31
0.0
  0
LINE
  5
1E6
330
17
100
AcDbEntity
  8
0
100
AcDbLine
 10
-29.163669500599116
 20
-45.53151094783004
 30
0.0
 11
-31.630738848114195
 21
-47.05046060879975
 31
0.0
  0
LINE
  5
1E7
330
17
100
AcDbEntity
  8
0
100
AcDbLine
 10
-31.630738848114195
 20
-47.05046060879975
 30
0.0
 11
-34.429694788684145
 21
-47.79844782844771
 31
0.0
  0
LINE
  5
1E8
330
17
100
AcDbEntity
  8
0
100
AcDbLine
 10
-34.429694788684145
 20
-47.79844782844771
 30
0.0
 11
-37.325603058226704
 21
-47.71268925801026
 31
0.0
  0
LINE
  5
1E9
330
17
100
AcDbEntity
  8
0
100
AcDbLine
 10
-37.325603058226704
 20
-47.71268925801026
 30
0.0
 11
-40.075391563932826
 21
-46.800383162505604
 31
0.0
  0
LINE
  5
1EA
330
17
100
AcDbEntity
  8
0
100
AcDbLine
 10
-40.075391563932826
 20
-46.800383162505604
 30
0.0
 11
-42.44825297882531
 21
-45.13810522433675
 31
0.0
  0
LINE
  5
1EB
330
17
100
AcDbEntity
  8
0
100
AcDbLine
 10
-42.44825297882531
 20
-45.13810522433675
 30
0.0
 11
-44.24501787612019
 21
-42.8653810567666
 31
0.0
  0
LINE
  5
1EC
330
17
100
AcDbEntity
  8
0
100
AcDbLine
 10
-59.2450178761202
 20
-16.88461894323345
 30
0.0
 11
-44.24501787612019
 21
-42.8653810567666
 31
0.0
  0
LINE
  5
1ED
330
17
100
AcDbEntity
  8
0
100
AcDbLine
 10
-17.3205080756888
 20
29.99999999999998
 30
0.0
 11
-34.64101615137754
 21
-2.3092638912203256e-14
 31
0.0
  0
LINE
  5
1EE
330
17
100
AcDbEntity
  8
0
100
AcDbLine
 10
-26.70800344948535
 20
32.74038105676656
 30
0.0
 11
-27.949392986048196
 21
33.2930832880862
 31
0.0
  0
LINE
  5
1EF
330
17
100
AcDbEntity
  8
0
100
AcDbLine
 10
-27.949392986048196
 20
33.2930832880862
 30
0.0
 11
-29.278568438245607
 21
33.57560825206148
 31
0.0
  0
LINE
  5
1F0
330
17
100
AcDbEntity
  8
0
100
AcDbLine
 10
-29.278568438245607
 20
33.57560825206148
 30
0.0
 11
-30.637438460725107
 21
33.57560825206148
 31
0.0
  0
LINE
  5
1F1
330
17
100
AcDbEntity
  8
0
100
AcDbLine
 10
-30.637438460725107
 20
33.57560825206148
 30
0.0
 11
-31.96661391292251
 21
33.2930832880862
 31
0.0
  0
LINE
  5
1F2
330
17
100
AcDbEntity
  8
0
100
AcDbLine
 10
-31.96661391292251
 20
33.2930832880862
 30
0.0
 11
-33.208003449485346
 21
32.74038105676655
 31
0.0
  0
LINE
  5
1F3
330
17
100
AcDbEntity
  8
0
100
AcDbLine
 10
-33.208003449485346
 20
32.74038105676655
 30
0.0
 11
-34.30735239081793
 21
31.941657297770764
 31
0.0
  0
LINE
  5
1F4
330
17
100
AcDbEntity
  8
0
100
AcDbLine
 10
-34.30735239081793
 20
31.941657297770764
 30
0.0
 11
-35.21661391292251
 21
30.931820072068774
 31
0.0
  0
LINE
  5
1F5
330
17
100
AcDbEntity
  8
0
100
AcDbLine
 10
-35.21661391292251
 20
30.931820072068774
 30
0.0
 11
-35.89604892416226
 21
29.7550041121604
 31
0.0
  0
LINE
  5
1F6
330
17
100
AcDbEntity
  8
0
100
AcDbLine
 10
-35.89604892416226
 20
29.7550041121604
 30
0.0
 11
-36.31596285425508
 21
28.462641922483137
 31
0.0
  0
LINE
  5
1F7
330
17
100
AcDbEntity
  8
0
100
AcDbLine
 10
-36.31596285425508
 20
28.462641922483137
 30
0.0
 11
-36.458003449485346
 21
27.111215932167703
 31
0.0
  0
LINE
  5
1F8
330
17
100
AcDbEntity
  8
0
100
AcDbLine
 10
-36.458003449485346
 20
27.111215932167703
 30
0.0
 11
-36.31596285425508
 21
25.759789941852265
 31
0.0
  0
LINE
  5
1F9
330
17
100
AcDbEntity
  8
0
100
AcDbLine
 10
-36.31596285425508
 20
25.759789941852265
 30
0.0
 11
-35.89604892416226
 21
24.467427752175
 31
0.0
  0
LINE
  5
1FA
330
17
100
AcDbEntity
  8
0
100
AcDbLine
 10
-35.89604892416226
 20
24.467427752175
 30
0.0
 11
-35.216613912922504
 21
23.290611792266624
 31
0.0
  0
LINE
  5
1FB
330
17
100
AcDbEntity
  8
0
100
AcDbLine
 10
-35.216613912922504
 20
23.290611792266624
 30
0.0
 11
-34.30735239081793
 21
22.28077456656464
 31
0.0
  0
LINE
  5
1FC
330
17
100
AcDbEntity
  8
0
100
AcDbLine
 10
-34.30735239081793
 20
22.28077456656464
 30
0.0
 11
-33.20800344948534
 21
21.48205080756885
 31
0.0
  0
LINE
  5
1FD
330
17
100
AcDbEntity
  8
0
100
AcDbLine
 10
-33.20800344948534
 20
21.48205080756885
 30
0.0
 11
-31.9666139129225
 21
20.929348576249204
 31
0.0
  0
LINE
  5
1FE
330
17
100
AcDbEntity
  8
0
100
AcDbLine
 10
-31.9666139129225
 20
20.929348576249204
 30
0.0
 11
-30.637438460725097
 21
20.646823612273927
 31
0.0
  0
LINE
  5
1FF
330
17
100
AcDbEntity
  8
0
100
AcDbLine
 10
-30.637438460725097
 20
20.646823612273927
 30
0.0
 11
-29.2785684382456
 21
20.64682361227393
 31
0.0
  0
LINE
  5
200
330
17
100
AcDbEntity
  8
0
100
AcDbLine
 10
-29.2785684382456
 20
20.64682361227393
 30
0.0
 11
-27.949392986048185
 21
20.929348576249204
 31
0.0
  0
LINE
  5
201
330
17
100
AcDbEntity
  8
0
100
AcDbLine
 10
-27.949392986048185
 20
20.929348576249204
 30
0.0
 11
-26.708003449485346
 21
21.482050807568854
 31
0.0
  0
LINE
  5
202
330
17
100
AcDbEntity
  8
0
100
AcDbLine
 10
-26.708003449485346
 20
21.482050807568854
 30
0.0
 11
-25.608654508152767
 21
22.28077456656464
 31
0.0
  0
LINE
  5
203
330
17
100
AcDbEntity
  8
0
100
AcDbLine
 10
-25.608654508152767
 20
22.28077456656464
 30
0.0
 11
-24.69939298604819
 21
23.290611792266628
 31
0.0
  0
LINE
  5
204
330
17
100
AcDbEntity
  8
0
100
AcDbLine
 10
-24.69939298604819
 20
23.290611792266628
 30
0.0
 11
-24.01995797480844
 21
24.467427752175006
 31
0.0
  0
LINE
  5
205
330
17
100
AcDbEntity
  8
0
100
AcDbLine
 10
-24.01995797480844
 20
24.467427752175006
 30
0.0
 11
-23.60004404471561
 21
25.759789941852272
 31
0.0
  0
LINE
  5
206
330
17
100
AcDbEntity
  8
0
100
AcDbLine
 10
-23.60004404471561
 20
25.759789941852272
 30
0.0
 11
-23.458003449485346
 21
27.111215932167703
 31
0.0
  0
LINE
  5
207
330
17
100
AcDbEntity
  8
0
100
AcDbLine
 10
-23.458003449485346
 20
27.111215932167703
 30
0.0
 11
-23.600044044715613
 21
28.46264192248314
 31
0.0
  0
LINE
  5
208
330
17
100
AcDbEntity
  8
0
100
AcDbLine
 10
-23.600044044715613
 20
28.46264192248314
 30
0.0
 11
-24.01995797480844
 21
29.755004112160407
 31
0.0
  0
LINE
  5
209
330
17
100
AcDbEntity
  8
0
100
AcDbLine
 10
-24.01995797480844
 20
29.755004112160407
 30
0.0
 11
-24.699392986048192
 21
30.93182007206878
 31
0.0
  0
LINE
  5
20A
330
17
100
AcDbEntity
  8
0
100
AcDbLine
 10
-24.699392986048192
 20
30.93182007206878
 30
0.0
 11
-25.608654508152767
 21
31.941657297770767
 31
0.0
  0
LINE
  5
20B
330
17
100
AcDbEntity
  8
0
100
AcDbLine
 10
-25.608654508152767
 20
31.941657297770767
 30
0.0
 11
-26.70800344948535
 21
32.74038105676656
 31
0.0
  0
LINE
  5
20C
330
17
100
AcDbEntity
  8
0
100
AcDbLine
 10
-35.20800344948534
 20
18.017949192431093
 30
0.0
 11
-36.44939298604818
 21
18.57065142375074
 31
0.0
  0
LINE
  5
20D
330
17
100
AcDbEntity
  8
0
100
AcDbLine
 10
-36.44939298604818
 20
18.57065142375074
 30
0.0
 11
-37.77856843824559
 21
18.853176387726016
 31
0.0
  0
LINE
  5
20E
330
17
100
AcDbEntity
  8
0
100
AcDbLine
 10
-37.77856843824559
 20
18.853176387726016
 30
0.0
 11
-39.13743846072509
 21
18.853176387726016
 31
0.0
  0
LINE
  5
20F
330
17
100
AcDbEntity
  8
0
100
AcDbLine
 10
-39.13743846072509
 20
18.853176387726016
 30
0.0
 11
-40.466613912922504
 21
18.57065142375074
 31
0.0
  0
LINE
  5
210
330
17
100
AcDbEntity
  8
0
100
AcDbLine
 10
-40.466613912922504
 20
18.57065142375074
 30
0.0
 11
-41.70800344948533
 21
18.01794919243109
 31
0.0
  0
LINE
  5
211
330
17
100
AcDbEntity
  8
0
100
AcDbLine
 10
-41.70800344948533
 20
18.01794919243109
 30
0.0
 11
-42.80735239081792
 21
17.219225433435298
 31
0.0
  0
LINE
  5
212
330
17
100
AcDbEntity
  8
0
100
AcDbLine
 10
-42.80735239081792
 20
17.219225433435298
 30
0.0
 11
-43.7166139129225
 21
16.209388207733312
 31
0.0
  0
LINE
  5
213
330
17
100
AcDbEntity
  8
0
100
AcDbLine
 10
-43.7166139129225
 20
16.209388207733312
 30
0.0
 11
-44.396048924162244
 21
15.032572247824938
 31
0.0
  0
LINE
  5
214
330
17
100
AcDbEntity
  8
0
100
AcDbLine
 10
-44.396048924162244
 20
15.032572247824938
 30
0.0
 11
-44.81596285425507
 21
13.740210058147671
 31
0.0
  0
LINE
  5
215
330
17
100
AcDbEntity
  8
0
100
AcDbLine
 10
-44.81596285425507
 20
13.740210058147671
 30
0.0
 11
-44.95800344948534
 21
12.388784067832239
 31
0.0
  0
LINE
  5
216
330
17
100
AcDbEntity
  8
0
100
AcDbLine
 10
-44.95800344948534
 20
12.388784067832239
 30
0.0
 11
-44.815962854255076
 21
11.037358077516803
 31
0.0
  0
LINE
  5
217
330
17
100
AcDbEntity
  8
0
100
AcDbLine
 10
-44.815962854255076
 20
11.037358077516803
 30
0.0
 11
-44.396048924162244
 21
9.744995887839535
 31
0.0
  0
LINE
  5
218
330
17
100
AcDbEntity
  8
0
100
AcDbLine
 10
-44.396048924162244
 20
9.744995887839535
 30
0.0
 11
-43.71661391292249
 21
8.56817992793116
 31
0.0
  0
LINE
  5
219
330
17
100
AcDbEntity
  8
0
100
AcDbLine
 10
-43.71661391292249
 20
8.56817992793116
 30
0.0
 11
-42.80735239081792
 21
7.558342702229178
 31
0.0
  0
LINE
  5
21A
330
17
100
AcDbEntity
  8
0
100
AcDbLine
 10
-42.80735239081792
 20
7.558342702229178
 30
0.0
 11
-41.70800344948533
 21
6.759618943233386
 31
0.0
  0
LINE
  5
21B
330
17
100
AcDbEntity
  8
0
100
AcDbLine
 10
-41.70800344948533
 20
6.759618943233386
 30
0.0
 11
-40.46661391292249
 21
6.20691671191374
 31
0.0
  0
LINE
  5
21C
330
17
100
AcDbEntity
  8
0
100
AcDbLine
 10
-40.46661391292249
 20
6.20691671191374
 30
0.0
 11
-39.137438460725086
 21
5.924391747938465
 31
0.0
  0
LINE
  5
21D
330
17
100
AcDbEntity
  8
0
100
AcDbLine
 10
-39.137438460725086
 20
5.924391747938465
 30
0.0
 11
-37.778568438245586
 21
5.924391747938467
 31
0.0
  0
LINE
  5
21E
330
17
100
AcDbEntity
  8
0
100
AcDbLine
 10
-37.778568438245586
 20
5.924391747938467
 30
0.0
 11
-36.449392986048174
 21
6.206916711913742
 31
0.0
  0
LINE
  5
21F
330
17
100
AcDbEntity
  8
0
100
AcDbLine
 10
-36.449392986048174
 20
6.206916711913742
 30
0.0
 11
-35.20800344948533
 21
6.759618943233388
 31
0.0
  0
LINE
  5
220
330
17
100
AcDbEntity
  8
0
100
AcDbLine
 10
-35.20800344948533
 20
6.759618943233388
 30
0.0
 11
-34.10865450815275
 21
7.558342702229178
 31
0.0
  0
LINE
  5
221
330
17
100
AcDbEntity
  8
0
100
AcDbLine
 10
-34.10865450815275
 20
7.558342702229178
 30
0.0
 11
-33.19939298604818
 21
8.568179927931165
 31
0.0
  0
LINE
  5
222
330
17
100
AcDbEntity
  8
0
100
AcDbLine
 10
-33.19939298604818
 20
8.568179927931165
 30
0.0
 11
-32.51995797480843
 21
9.74499588783954
 31
0.0
  0
LINE
  5
223
330
17
100
AcDbEntity
  8
0
100
AcDbLine
 10
-32.51995797480843
 20
9.74499588783954
 30
0.0
 11
-32.100044044715595
 21
11.037358077516807
 31
0.0
  0
LINE
  5
224
330
17
100
AcDbEntity
  8
0
100
AcDbLine
 10
-32.100044044715595
 20
11.037358077516807
 30
0.0
 11
-31.958003449485336
 21
12.388784067832237
 31
0.0
  0
LINE
  5
225
330
17
100
AcDbEntity
  8
0
100
AcDbLine
 10
-31.958003449485336
 20
12.388784067832237
 30
0.0
 11
-32.1000440447156
 21
13.740210058147678
 31
0.0
  0
LINE
  5
226
330
17
100
AcDbEntity
  8
0
100
AcDbLine
 10
-32.1000440447156
 20
13.740210058147678
 30
0.0
 11
-32.51995797480843
 21
15.032572247824945
 31
0.0
  0
LINE
  5
227
330
17
100
AcDbEntity
  8
0
100
AcDbLine
 10
-32.51995797480843
 20
15.032572247824945
 30
0.0
 11
-33.19939298604818
 21
16.20938820773332
 31
0.0
  0
LINE
  5
228
330
17
100
AcDbEntity
  8
0
100
AcDbLine
 10
-33.19939298604818
 20
16.20938820773332
 30
0.0
 11
-34.10865450815275
 21
17.2192254334353
 31
0.0
  0
LINE
  5
229
330
17
100
AcDbEntity
  8
0
100
AcDbLine
 10
-34.10865450815275
 20
17.2192254334353
 30
0.0
 11
-35.20800344948534
 21
18.017949192431093
 31
0.0
  0
LINE
  5
22A
330
17
100
AcDbEntity
  8
0
100
AcDbLine
 10
-49.935244785437504
 20
11.509618943233379
 30
0.0
 11
-34.93524478543752
 21
37.49038105676655
 31
0.0
  0
LINE
  5
22B
330
17
100
AcDbEntity
  8
0
100
AcDbLine
 10
-34.93524478543752
 20
37.49038105676655
 30
0.0
 11
-36.23428289111418
 21
38.24038105676655
 31
0.0
  0
LINE
  5
22C
330
17
100
AcDbEntity
  8
0
100
AcDbLine
 10
-36.23428289111418
 20
38.24038105676655
 30
0.0
 11
-51.23428289111416
 21
12.259618943233379
 31
0.0
  0
LINE
  5
22D
330
17
100
AcDbEntity
  8
0
100
AcDbLine
 10
-51.23428289111416
 20
12.259618943233379
 30
0.0
 11
-49.935244785437504
 21
11.509618943233379
 31
0.0
  0
LINE
  5
22E
330
17
100
AcDbEntity
  8
0
100
AcDbLine
 10
-17.3205080756888
 20
29.99999999999998
 30
0.0
 11
-26.000648945514794
 21
35.01148166779788
 31
0.0
  0
LINE
  5
22F
330
17
100
AcDbEntity
  8
0
100
AcDbLine
 10
-26.000648945514794
 20
35.01148166779788
 30
0.0
 11
-25.584772648905197
 21
37.87865556275556
 31
0.0
  0
LINE
  5
230
330
17
100
AcDbEntity
  8
0
100
AcDbLine
 10
-25.584772648905197
 20
37.87865556275556
 30
0.0
 11
-26.008259536563997
 21
40.744715243569885
 31
0.0
  0
LINE
  5
231
330
17
100
AcDbEntity
  8
0
100
AcDbLine
 10
-26.008259536563997
 20
40.744715243569885
 30
0.0
 11
-27.235563646920866
 21
43.3690940002873
 31
0.0
  0
LINE
  5
232
330
17
100
AcDbEntity
  8
0
100
AcDbLine
 10
-27.235563646920866
 20
43.3690940002873
 30
0.0
 11
-29.163669500599173
 21
45.53151094783
 31
0.0
  0
LINE
  5
233
330
17
100
AcDbEntity
  8
0
100
AcDbLine
 10
-29.163669500599173
 20
45.53151094783
 30
0.0
 11
-31.63073884811426
 21
47.05046060879971
 31
0.0
  0
LINE
  5
234
330
17
100
AcDbEntity
  8
0
100
AcDbLine
 10
-31.63073884811426
 20
47.05046060879971
 30
0.0
 11
-34.42969478868421
 21
47.798447828447664
 31
0.0
  0
LINE
  5
235
330
17
100
AcDbEntity
  8
0
100
AcDbLine
 10
-34.42969478868421
 20
47.798447828447664
 30
0.0
 11
-37.32560305822677
 21
47.712689258010215
 31
0.0
  0
LINE
  5
236
330
17
100
AcDbEntity
  8
0
100
AcDbLine
 10
-37.32560305822677
 20
47.712689258010215
 30
0.0
 11
-40.07539156393289
 21
46.80038316250555
 31
0.0
  0
LINE
  5
237
330
17
100
AcDbEntity
  8
0
100
AcDbLine
 10
-40.07539156393289
 20
46.80038316250555
 30
0.0
 11
-42.44825297882537
 21
45.13810522433669
 31
0.0
  0
LINE
  5
238
330
17
100
AcDbEntity
  8
0
100
AcDbLine
 10
-42.44825297882537
 20
45.13810522433669
 30
0.0
 11
-44.245017876120244
 21
42.865381056766545
 31
0.0
  0
LINE
  5
239
330
17
100
AcDbEntity
  8
0
100
AcDbLine
 10
-34.64101615137754
 20
-2.3092638912203256e-14
 30
0.0
 11
-43.32115702120353
 21
5.011481667797879
 31
0.0
  0
LINE
  5
23A
330
17
100
AcDbEntity
  8
0
100
AcDbLine
 10
-43.32115702120353
 20
5.011481667797879
 30
0.0
 11
-45.59626430299966
 21
3.2177352826233303
 31
0.0
  0
LINE
  5
23B
330
17
100
AcDbEntity
  8
0
100
AcDbLine
 10
-45.59626430299966
 20
3.2177352826233303
 30
0.0
 11
-48.29008823917658
 21
2.151455845098294
 31
0.0
  0
LINE
  5
23C
330
17
100
AcDbEntity
  8
0
100
AcDbLine
 10
-48.29008823917658
 20
2.151455845098294
 30
0.0
 11
-51.17651896682452
 21
1.9021430044776864
 31
0.0
  0
LINE
  5
23D
330
17
100
AcDbEntity
  8
0
100
AcDbLine
 10
-51.17651896682452
 20
1.9021430044776864
 30
0.0
 11
-54.01327990380966
 21
2.490723181177227
 31
0.0
  0
LINE
  5
23E
330
17
100
AcDbEntity
  8
0
100
AcDbLine
 10
-54.01327990380966
 20
2.490723181177227
 30
0.0
 11
-56.56226357103672
 21
3.8677930785383374
 31
0.0
  0
LINE
  5
23F
330
17
100
AcDbEntity
  8
0
100
AcDbLine
 10
-56.56226357103672
 20
3.8677930785383374
 30
0.0
 11
-58.60951747524293
 21
5.917766417321296
 31
0.0
  0
LINE
  5
240
330
17
100
AcDbEntity
  8
0
100
AcDbLine
 10
-58.60951747524293
 20
5.917766417321296
 30
0.0
 11
-59.983202509423144
 21
8.468575830993313
 31
0.0
  0
LINE
  5
241
330
17
100
AcDbEntity
  8
0
100
AcDbLine
 10
-59.983202509423144
 20
8.468575830993313
 30
0.0
 11
-60.56801650754178
 21
11.306115579721592
 31
0.0
  0
LINE
  5
242
330
17
100
AcDbEntity
  8
0
100
AcDbLine
 10
-60.56801650754178
 20
11.306115579721592
 30
0.0
 11
-60.31487229238338
 21
14.192212813762799
 31
0.0
  0
LINE
  5
243
330
17
100
AcDbEntity
  8
0
100
AcDbLine
 10
-60.31487229238338
 20
14.192212813762799
 30
0.0
 11
-59.245017876120215
 21
16.88461894323337
 31
0.0
  0
LINE
  5
244
330
17
100
AcDbEntity
  8
0
100
AcDbLine
 10
-44.245017876120244
 20
42.865381056766545
 30
0.0
 11
-59.245017876120215
 21
16.88461894323337
 31
0.0
  0
ENDSEC
  0
SECTION
  2
OBJECTS
  0
DICTIONARY
  5
A
330
0
100
AcDbDictionary
280
0
281
1
  3
ACAD_COLOR
350
B
  3
ACAD_GROUP
350
C
  3
ACAD_LAYOUT
350
D
  3
ACAD_MATERIAL
350
E
  3
ACAD_MLEADERSTYLE
350
F
  3
ACAD_MLINESTYLE
350
10
  3
ACAD_PLOTSETTINGS
350
11
  3
ACAD_PLOTSTYLENAME
350
12
  3
ACAD_SCALELIST
350
14
  3
ACAD_TABLESTYLE
350
15
  3
ACAD_VISUALSTYLE
350
16
  3
EZDXF_META
350
2D
  0
DICTIONARY
  5
B
330
A
100
AcDbDictionary
280
0
281
1
  0
DICTIONARY
  5
C
330
A
100
AcDbDictionary
280
0
281
1
  0
DICTIONARY
  5
D
330
A
100
AcDbDictionary
280
0
281
1
  3
Model
350
1A
  3
Layout1
350
1E
  0
DICTIONARY
  5
E
330
A
100
AcDbDictionary
280
0
281
1
  3
ByBlock
350
1F
  3
ByLayer
350
20
  3
Global
350
21
  0
DICTIONARY
  5
F
330
A
100
AcDbDictionary
280
0
281
1
  3
Standard
350
2C
  0
DICTIONARY
  5
10
330
A
100
AcDbDictionary
280
0
281
1
  3
Standard
350
22
  0
DICTIONARY
  5
11
330
A
100
AcDbDictionary
280
0
281
1
  0
ACDBDICTIONARYWDFLT
  5
12
330
A
100
AcDbDictionary
280
0
281
1
  3
Normal
350
13
100
AcDbDictionaryWithDefault
340
13
  0
ACDBPLACEHOLDER
  5
13
330
12
  0
DICTIONARY
  5
14
330
A
100
AcDbDictionary
280
0
281
1
  0
DICTIONARY
  5
15
330
A
100
AcDbDictionary
280
0
281
1
  0
DICTIONARY
  5
16
330
A
100
AcDbDictionary
280
0
281
1
  0
LAYOUT
  5
1A
330
D
100
AcDbPlotSettings
  1

  4
A3
  6

 40
7.5
 41
20.0
 42
7.5
 43
20.0
 44
420.0
 45
297.0
 46
0.0
 47
0.0
 48
0.0
 49
0.0
140
0.0
141
0.0
142
1.0
143
1.0
 70
1024
 72
1
 73
0
 74
5
  7

 75
16
 76
0
 77
2
 78
300
147
1.0
148
0.0
149
0.0
100
AcDbLayout
  1
Model
 70
1
 71
0
 10
0.0
 20
0.0
 11
420.0
 21
297.0
 12
0.0
 22
0.0
 32
0.0
 14
1e+20
 24
1e+20
 34
1e+20
 15
-1e+20
 25
-1e+20
 35
-1e+20
146
0.0
 13
0.0
 23
0.0
 33
0.0
 16
1.0
 26
0.0
 36
0.0
 17
0.0
 27
1.0
 37
0.0
 76
1
330
17
  0
LAYOUT
  5
1E
330
D
100
AcDbPlotSettings
  1

  4
A3
  6

 40
7.5
 41
20.0
 42
7.5
 43
20.0
 44
420.0
 45
297.0
 46
0.0
 47
0.0
 48
0.0
 49
0.0
140
0.0
141
0.0
142
1.0
143
1.0
 70
0
 72
1
 73
0
 74
5
  7

 75
16
 76
0
 77
2
 78
300
147
1.0
148
0.0
149
0.0
100
AcDbLayout
  1
Layout1
 70
1
 71
1
 10
0.0
 20
0.0
 11
420.0
 21
297.0
 12
0.0
 22
0.0
 32
0.0
 14
1e+20
 24
1e+20
 34
1e+20
 15
-1e+20
 25
-1e+20
 35
-1e+20
146
0.0
 13
0.0
 23
0.0
 33
0.0
 16
1.0
 26
0.0
 36
0.0
 17
0.0
 27
1.0
 37
0.0
 76
1
330
1B
  0
MATERIAL
  5
1F
102
{ACAD_REACTORS
330
E
102
}
330
E
100
AcDbMaterial
  1
ByBlock
  2

 70
0
 40
1.0
 71
1
 41
1.0
 91
-1023410177
 42
1.0
 72
1
  3

 73
1
 74
1
 75
1
 44
0.5
 73
0
 45
1.0
 46
1.0
 77
1
  4

 78
1
 79
1
170
1
 48
1.0
171
1
  6

172
1
173
1
174
1
140
1.0
141
1.0
175
1
  7

176
1
177
1
178
1
143
1.0
179
1
  8

270
1
271
1
272
1
145
1.0
146
1.0
273
1
  9

274
1
275
1
276
1
 42
1.0
 72
1
  3

 73
1
 74
1
 75
1
 94
63
  0
MATERIAL
  5
20
102
{ACAD_REACTORS
330
E
102
}
330
E
100
AcDbMaterial
  1
ByLayer
  2

 70
0
 40
1.0
 71
1
 41
1.0
 91
-1023410177
 42
1.0
 72
1
  3

 73
1
 74
1
 75
1
 44
0.5
 73
0
 45
1.0
 46
1.0
 77
1
  4

 78
1
 79
1
170
1
 48
1.0
171
1
  6

172
1
173
1
174
1
140
1.0
141
1.0
175
1
  7

176
1
177
1
178
1
143
1.0
179
1
  8

270
1
271
1
272
1
145
1.0
146
1.0
273
1
  9

274
1
275
1
276
1
 42
1.0
 72
1
  3

 73
1
 74
1
 75
1
 94
63
  0
MATERIAL
  5
21
102
{ACAD_REACTORS
330
E
102
}
330
E
100
AcDbMaterial
  1
Global
  2

 70
0
 40
1.0
 71
1
 41
1.0
 91
-1023410177
 42
1.0
 72
1
  3

 73
1
 74
1
 75
1
 44
0.5
 73
0
 45
1.0
 46
1.0
 77
1
  4

 78
1
 79
1
170
1
 48
1.0
171
1
  6

172
1
173
1
174
1
140
1.0
141
1.0
175
1
  7

176
1
177
1
178
1
143
1.0
179
1
  8

270
1
271
1
272
1
145
1.0
146
1.0
273
1
  9

274
1
275
1
276
1
 42
1.0
 72
1
  3

 73
1
 74
1
 75
1
 94
63
  0
MLINESTYLE
  5
22
102
{ACAD_REACTORS
330
10
102
}
330
10
100
AcDbMlineStyle
  2
Standard
 70
0
  3

 62
256
 51
90.0
 52
90.0
 71
2
 49
0.5
 62
256
  6
BYLAYER
 49
-0.5
 62
256
  6
BYLAYER
  0
MLEADERSTYLE
  5
2C
102
{ACAD_REACTORS
330
F
102
}
330
F
100
AcDbMLeaderStyle
179
2
170
2
171
1
172
0
 90
2
 40
0.0
 41
0.0
173
1
 91
-1056964608
 92
-2
290
1
 42
2.0
291
1
 43
8.0
  3
Standard
 44
4.0
300

342
29
174
1
175
1
176
0
178
1
 93
-1056964608
 45
4.0
292
0
297
0
 46
4.0
 94
-1056964608
 47
1.0
 49
1.0
140
1.0
294
1
141
0.0
177
0
142
1.0
295
0
296
0
143
3.75
271
0
272
9
273
9
  0
DICTIONARY
  5
2D
330
A
100
AcDbDictionary
280
1
281
1
  3
CREATED_BY_EZDXF
350
2E
  3
WRITTEN_BY_EZDXF
350
247
  0
DICTIONARYVAR
  5
2E
330
2D
100
DictionaryVariables
280
0
  1
1.3.5 @ 2025-01-12T01:27:54.864941+00:00
  0
DICTIONARYVAR
  5
247
330
2D
100
DictionaryVariables
280
0
  1
1.3.5 @ 2025-01-12T01:27:54.876592+00:00
  0
ENDSEC
  0
EOF
